<?xml version="1.0" encoding="UTF-8"?>
<svg xmlns="http://www.w3.org/2000/svg" xmlns:xlink="http://www.w3.org/1999/xlink" width="12pt" height="12pt" viewBox="0 0 12 12" version="1.1">
<defs>
<filter id="alpha" filterUnits="objectBoundingBox" x="0%" y="0%" width="100%" height="100%">
  <feColorMatrix type="matrix" in="SourceGraphic" values="0 0 0 0 1 0 0 0 0 1 0 0 0 0 1 0 0 0 1 0"/>
</filter>
<mask id="mask0">
  <g filter="url(#alpha)">
<rect x="0" y="0" width="12" height="12" style="fill:rgb(0%,0%,0%);fill-opacity:0.14902;stroke:none;"/>
  </g>
</mask>
<clipPath id="clip1">
  <rect x="0" y="0" width="12" height="12"/>
</clipPath>
<g id="surface5" clip-path="url(#clip1)">
<path style=" stroke:none;fill-rule:nonzero;fill:rgb(24.705882%,27.058824%,41.960784%);fill-opacity:1;" d="M 11.25 7.085938 L 0.710938 7.085938 L 0.753906 6.757812 L 11.207031 6.757812 Z M 11.25 7.085938 "/>
</g>
<mask id="mask1">
  <g filter="url(#alpha)">
<rect x="0" y="0" width="12" height="12" style="fill:rgb(0%,0%,0%);fill-opacity:0.2;stroke:none;"/>
  </g>
</mask>
<clipPath id="clip2">
  <rect x="0" y="0" width="12" height="12"/>
</clipPath>
<g id="surface8" clip-path="url(#clip2)">
<path style=" stroke:none;fill-rule:nonzero;fill:rgb(100%,100%,100%);fill-opacity:1;" d="M 9.355469 1.199219 C 9.355469 1.308594 9.265625 1.398438 9.15625 1.398438 C 9.046875 1.398438 8.957031 1.308594 8.957031 1.199219 C 8.957031 1.089844 9.046875 1 9.15625 1 C 9.265625 1 9.355469 1.089844 9.355469 1.199219 Z M 9.355469 1.199219 "/>
</g>
<mask id="mask2">
  <g filter="url(#alpha)">
<rect x="0" y="0" width="12" height="12" style="fill:rgb(0%,0%,0%);fill-opacity:0.2;stroke:none;"/>
  </g>
</mask>
<clipPath id="clip3">
  <rect x="0" y="0" width="12" height="12"/>
</clipPath>
<g id="surface11" clip-path="url(#clip3)">
<path style=" stroke:none;fill-rule:nonzero;fill:rgb(100%,100%,100%);fill-opacity:1;" d="M 3.070312 1.199219 C 3.070312 1.308594 2.980469 1.398438 2.871094 1.398438 C 2.761719 1.398438 2.671875 1.308594 2.671875 1.199219 C 2.671875 1.089844 2.761719 1 2.871094 1 C 2.980469 1 3.070312 1.089844 3.070312 1.199219 Z M 3.070312 1.199219 "/>
</g>
<mask id="mask3">
  <g filter="url(#alpha)">
<rect x="0" y="0" width="12" height="12" style="fill:rgb(0%,0%,0%);fill-opacity:0.2;stroke:none;"/>
  </g>
</mask>
<clipPath id="clip4">
  <rect x="0" y="0" width="12" height="12"/>
</clipPath>
<g id="surface14" clip-path="url(#clip4)">
<path style=" stroke:none;fill-rule:nonzero;fill:rgb(100%,100%,100%);fill-opacity:1;" d="M 3.578125 4.417969 C 3.992188 4.417969 4.328125 4.753906 4.328125 5.167969 C 4.328125 5.582031 3.992188 5.917969 3.578125 5.917969 C 3.164062 5.917969 2.828125 5.582031 2.828125 5.167969 C 2.828125 4.753906 3.164062 4.417969 3.578125 4.417969 Z M 3.996094 5.167969 C 3.996094 4.9375 3.808594 4.75 3.574219 4.75 C 3.34375 4.75 3.15625 4.9375 3.15625 5.167969 C 3.15625 5.398438 3.34375 5.585938 3.578125 5.585938 C 3.6875 5.585938 3.792969 5.542969 3.871094 5.464844 C 3.953125 5.386719 3.996094 5.28125 3.996094 5.167969 Z M 3.996094 5.167969 "/>
</g>
<mask id="mask4">
  <g filter="url(#alpha)">
<rect x="0" y="0" width="12" height="12" style="fill:rgb(0%,0%,0%);fill-opacity:0.2;stroke:none;"/>
  </g>
</mask>
<clipPath id="clip5">
  <rect x="0" y="0" width="12" height="12"/>
</clipPath>
<g id="surface17" clip-path="url(#clip5)">
<path style=" stroke:none;fill-rule:nonzero;fill:rgb(100%,100%,100%);fill-opacity:1;" d="M 8.417969 4.429688 C 8.832031 4.429688 9.167969 4.765625 9.167969 5.179688 C 9.167969 5.59375 8.832031 5.929688 8.417969 5.929688 C 8.003906 5.929688 7.667969 5.59375 7.667969 5.179688 C 7.667969 4.765625 8.003906 4.429688 8.417969 4.429688 Z M 8.835938 5.179688 C 8.835938 4.949219 8.648438 4.761719 8.417969 4.761719 C 8.183594 4.761719 7.996094 4.949219 7.996094 5.179688 C 7.996094 5.410156 8.183594 5.597656 8.417969 5.597656 C 8.648438 5.597656 8.835938 5.410156 8.835938 5.179688 Z M 8.835938 5.179688 "/>
</g>
<mask id="mask5">
  <g filter="url(#alpha)">
<rect x="0" y="0" width="12" height="12" style="fill:rgb(0%,0%,0%);fill-opacity:0.14902;stroke:none;"/>
  </g>
</mask>
<clipPath id="clip6">
  <rect x="0" y="0" width="12" height="12"/>
</clipPath>
<g id="surface20" clip-path="url(#clip6)">
<path style=" stroke:none;fill-rule:nonzero;fill:rgb(24.705882%,27.058824%,41.960784%);fill-opacity:1;" d="M 0.761719 10.613281 L 11.238281 10.613281 L 11.238281 11.023438 L 0.761719 11.023438 Z M 0.761719 10.613281 "/>
</g>
<mask id="mask6">
  <g filter="url(#alpha)">
<rect x="0" y="0" width="12" height="12" style="fill:rgb(0%,0%,0%);fill-opacity:0.14902;stroke:none;"/>
  </g>
</mask>
<clipPath id="clip7">
  <rect x="0" y="0" width="12" height="12"/>
</clipPath>
<g id="surface23" clip-path="url(#clip7)">
<path style=" stroke:none;fill-rule:nonzero;fill:rgb(100%,100%,100%);fill-opacity:1;" d="M 0.761719 7.90625 L 11.238281 7.90625 L 11.238281 8.316406 L 0.761719 8.316406 Z M 0.761719 7.90625 "/>
</g>
<mask id="mask7">
  <g filter="url(#alpha)">
<rect x="0" y="0" width="12" height="12" style="fill:rgb(0%,0%,0%);fill-opacity:0.14902;stroke:none;"/>
  </g>
</mask>
<clipPath id="clip8">
  <rect x="0" y="0" width="12" height="12"/>
</clipPath>
<g id="surface26" clip-path="url(#clip8)">
<path style=" stroke:none;fill-rule:nonzero;fill:rgb(24.705882%,27.058824%,41.960784%);fill-opacity:1;" d="M 9.257812 7.882812 L 11.214844 7.882812 L 11.214844 11.023438 L 9.257812 11.023438 Z M 9.257812 7.882812 "/>
</g>
<mask id="mask8">
  <g filter="url(#alpha)">
<rect x="0" y="0" width="12" height="12" style="fill:rgb(0%,0%,0%);fill-opacity:0.2;stroke:none;"/>
  </g>
</mask>
<clipPath id="clip9">
  <rect x="0" y="0" width="12" height="12"/>
</clipPath>
<g id="surface29" clip-path="url(#clip9)">
<path style=" stroke:none;fill-rule:nonzero;fill:rgb(100%,100%,100%);fill-opacity:1;" d="M 2.308594 7.882812 L 4.914062 7.882812 L 4.914062 11.023438 L 2.308594 11.023438 Z M 2.308594 7.882812 "/>
</g>
<mask id="mask9">
  <g filter="url(#alpha)">
<rect x="0" y="0" width="12" height="12" style="fill:rgb(0%,0%,0%);fill-opacity:0.14902;stroke:none;"/>
  </g>
</mask>
<clipPath id="clip10">
  <rect x="0" y="0" width="12" height="12"/>
</clipPath>
<g id="surface32" clip-path="url(#clip10)">
<path style=" stroke:none;fill-rule:nonzero;fill:rgb(24.705882%,27.058824%,41.960784%);fill-opacity:1;" d="M 9.257812 7.085938 C 9.257812 7.085938 9.628906 3.625 7.25 2.484375 C 7.25 2.484375 10.636719 2.886719 11.238281 7.085938 Z M 9.257812 7.085938 "/>
</g>
<mask id="mask10">
  <g filter="url(#alpha)">
<rect x="0" y="0" width="12" height="12" style="fill:rgb(0%,0%,0%);fill-opacity:0.2;stroke:none;"/>
  </g>
</mask>
<clipPath id="clip11">
  <rect x="0" y="0" width="12" height="12"/>
</clipPath>
<g id="surface35" clip-path="url(#clip11)">
<path style=" stroke:none;fill-rule:nonzero;fill:rgb(100%,100%,100%);fill-opacity:1;" d="M 5.941406 2.339844 L 5.992188 2.339844 C 5.996094 2.335938 6 2.335938 6 2.332031 C 6.003906 2.328125 5.980469 2.332031 5.941406 2.339844 Z M 5.941406 2.339844 "/>
<path style=" stroke:none;fill-rule:nonzero;fill:rgb(100%,100%,100%);fill-opacity:1;" d="M 6.066406 2.339844 L 5.941406 2.339844 C 2.882812 2.402344 1.566406 4.679688 1.546875 4.714844 C 1.566406 4.691406 2.542969 3.414062 4.449219 2.917969 C 3.429688 3.523438 2.285156 4.726562 2.285156 7.089844 L 4.9375 7.089844 C 4.9375 7.089844 4.816406 4.304688 5.726562 2.730469 C 5.816406 2.722656 5.910156 2.722656 6 2.722656 C 8.933594 2.722656 10.417969 4.6875 10.441406 4.71875 C 10.417969 4.679688 9 2.339844 6.066406 2.339844 Z M 3.5625 5.589844 C 3.335938 5.589844 3.152344 5.40625 3.152344 5.179688 C 3.152344 4.953125 3.335938 4.769531 3.5625 4.769531 C 3.789062 4.769531 3.972656 4.953125 3.972656 5.179688 C 3.972656 5.40625 3.789062 5.589844 3.5625 5.589844 Z M 3.5625 5.589844 "/>
</g>
<mask id="mask11">
  <g filter="url(#alpha)">
<rect x="0" y="0" width="12" height="12" style="fill:rgb(0%,0%,0%);fill-opacity:0.14902;stroke:none;"/>
  </g>
</mask>
<clipPath id="clip12">
  <rect x="0" y="0" width="12" height="12"/>
</clipPath>
<g id="surface38" clip-path="url(#clip12)">
<path style=" stroke:none;fill-rule:nonzero;fill:rgb(24.705882%,27.058824%,41.960784%);fill-opacity:1;" d="M 8.703125 7.085938 L 10.660156 7.085938 L 10.660156 7.882812 L 8.703125 7.882812 Z M 8.703125 7.085938 "/>
</g>
<mask id="mask12">
  <g filter="url(#alpha)">
<rect x="0" y="0" width="12" height="12" style="fill:rgb(0%,0%,0%);fill-opacity:0.2;stroke:none;"/>
  </g>
</mask>
<clipPath id="clip13">
  <rect x="0" y="0" width="12" height="12"/>
</clipPath>
<g id="surface41" clip-path="url(#clip13)">
<path style=" stroke:none;fill-rule:nonzero;fill:rgb(100%,100%,100%);fill-opacity:1;" d="M 2.839844 7.085938 L 5.445312 7.085938 L 5.445312 7.882812 L 2.839844 7.882812 Z M 2.839844 7.085938 "/>
</g>
<mask id="mask13">
  <g filter="url(#alpha)">
<rect x="0" y="0" width="12" height="12" style="fill:rgb(0%,0%,0%);fill-opacity:0.14902;stroke:none;"/>
  </g>
</mask>
<clipPath id="clip14">
  <rect x="0" y="0" width="12" height="12"/>
</clipPath>
<g id="surface44" clip-path="url(#clip14)">
<path style=" stroke:none;fill-rule:nonzero;fill:rgb(24.705882%,27.058824%,41.960784%);fill-opacity:1;" d="M 1.339844 7.085938 L 10.660156 7.085938 L 10.660156 7.496094 L 1.339844 7.496094 Z M 1.339844 7.085938 "/>
</g>
<mask id="mask14">
  <g filter="url(#alpha)">
<rect x="0" y="0" width="12" height="12" style="fill:rgb(0%,0%,0%);fill-opacity:0.2;stroke:none;"/>
  </g>
</mask>
<clipPath id="clip15">
  <rect x="0" y="0" width="12" height="12"/>
</clipPath>
<g id="surface47" clip-path="url(#clip15)">
<path style=" stroke:none;fill-rule:nonzero;fill:rgb(100%,100%,100%);fill-opacity:1;" d="M 8.003906 3.054688 C 8.003906 2.695312 7.0625 2.402344 5.902344 2.402344 C 4.742188 2.402344 3.804688 2.695312 3.804688 3.054688 C 3.804688 3.414062 4.742188 3.707031 5.902344 3.707031 C 7.0625 3.707031 8.003906 3.414062 8.003906 3.054688 Z M 8.003906 3.054688 "/>
</g>
</defs>
<g id="surface1">
<path style=" stroke:none;fill-rule:nonzero;fill:rgb(49.019608%,81.960784%,84.705882%);fill-opacity:1;" d="M 8.574219 2.976562 L 8.511719 2.949219 L 9.375 1.453125 C 9.457031 1.292969 9.402344 1.097656 9.246094 1.011719 C 9.09375 0.921875 8.894531 0.972656 8.800781 1.125 L 7.898438 2.683594 C 6.691406 2.242188 5.46875 2.222656 4.234375 2.628906 C 4.195312 2.644531 4.15625 2.65625 4.117188 2.667969 L 3.222656 1.121094 C 3.128906 0.972656 2.933594 0.921875 2.777344 1.011719 C 2.625 1.097656 2.566406 1.292969 2.648438 1.449219 L 3.503906 2.925781 L 3.417969 2.972656 C 1.828125 3.898438 0.949219 5.265625 0.734375 7.085938 L 11.25 7.085938 C 11.039062 5.261719 10.152344 3.898438 8.574219 2.976562 Z M 3.574219 5.617188 C 3.332031 5.613281 3.136719 5.417969 3.136719 5.175781 C 3.136719 4.933594 3.332031 4.734375 3.574219 4.734375 C 3.816406 4.734375 4.011719 4.933594 4.011719 5.175781 C 4.011719 5.417969 3.816406 5.613281 3.574219 5.617188 Z M 8.417969 5.617188 C 8.175781 5.617188 7.976562 5.421875 7.972656 5.179688 C 7.96875 4.9375 8.164062 4.738281 8.410156 4.734375 C 8.652344 4.734375 8.851562 4.925781 8.851562 5.171875 C 8.851562 5.414062 8.660156 5.609375 8.417969 5.613281 Z M 8.417969 5.617188 "/>
<use xlink:href="#surface5" mask="url(#mask0)"/>
<use xlink:href="#surface8" mask="url(#mask1)"/>
<use xlink:href="#surface11" mask="url(#mask2)"/>
<use xlink:href="#surface14" mask="url(#mask3)"/>
<use xlink:href="#surface17" mask="url(#mask4)"/>
<path style=" stroke:none;fill-rule:nonzero;fill:rgb(49.019608%,81.960784%,84.705882%);fill-opacity:1;" d="M 0.761719 7.882812 L 11.238281 7.882812 L 11.238281 10.996094 L 0.761719 10.996094 Z M 0.761719 7.882812 "/>
<use xlink:href="#surface20" mask="url(#mask5)"/>
<use xlink:href="#surface23" mask="url(#mask6)"/>
<use xlink:href="#surface26" mask="url(#mask7)"/>
<use xlink:href="#surface29" mask="url(#mask8)"/>
<use xlink:href="#surface32" mask="url(#mask9)"/>
<use xlink:href="#surface35" mask="url(#mask10)"/>
<path style=" stroke:none;fill-rule:nonzero;fill:rgb(85.490196%,88.235294%,91.764706%);fill-opacity:1;" d="M 1.367188 7.085938 L 10.660156 7.085938 L 10.660156 7.882812 L 1.367188 7.882812 Z M 1.367188 7.085938 "/>
<use xlink:href="#surface38" mask="url(#mask11)"/>
<use xlink:href="#surface41" mask="url(#mask12)"/>
<use xlink:href="#surface44" mask="url(#mask13)"/>
<use xlink:href="#surface47" mask="url(#mask14)"/>
<path style=" stroke:none;fill-rule:nonzero;fill:rgb(24.705882%,27.058824%,41.960784%);fill-opacity:1;" d="M 11.25 7.203125 L 0.734375 7.203125 C 0.703125 7.203125 0.671875 7.191406 0.648438 7.164062 C 0.625 7.140625 0.613281 7.105469 0.617188 7.074219 C 0.726562 6.148438 1.011719 5.324219 1.460938 4.628906 C 1.914062 3.9375 2.546875 3.347656 3.34375 2.882812 L 2.550781 1.511719 C 2.464844 1.371094 2.460938 1.195312 2.539062 1.054688 C 2.621094 0.914062 2.773438 0.824219 2.9375 0.828125 C 3.101562 0.828125 3.25 0.921875 3.324219 1.066406 L 4.171875 2.527344 L 4.195312 2.519531 C 5.421875 2.117188 6.648438 2.125 7.84375 2.539062 L 8.699219 1.0625 C 8.824219 0.855469 9.09375 0.785156 9.304688 0.90625 C 9.515625 1.027344 9.59375 1.296875 9.476562 1.507812 L 8.671875 2.898438 C 9.457031 3.363281 10.078125 3.945312 10.523438 4.628906 C 10.976562 5.324219 11.257812 6.144531 11.367188 7.074219 C 11.367188 7.105469 11.359375 7.140625 11.335938 7.164062 C 11.3125 7.191406 11.28125 7.203125 11.25 7.203125 Z M 0.867188 6.96875 L 11.117188 6.96875 C 11.003906 6.132812 10.738281 5.386719 10.328125 4.757812 C 9.894531 4.09375 9.285156 3.527344 8.519531 3.078125 L 8.460938 3.054688 C 8.429688 3.039062 8.40625 3.015625 8.398438 2.984375 C 8.386719 2.953125 8.390625 2.917969 8.40625 2.890625 L 9.273438 1.394531 C 9.324219 1.292969 9.285156 1.167969 9.1875 1.113281 C 9.089844 1.058594 8.964844 1.089844 8.902344 1.183594 L 8 2.742188 C 7.972656 2.792969 7.910156 2.8125 7.859375 2.792969 C 6.683594 2.363281 5.476562 2.34375 4.269531 2.742188 C 4.230469 2.753906 4.195312 2.765625 4.160156 2.78125 C 4.105469 2.796875 4.046875 2.777344 4.019531 2.726562 L 3.121094 1.179688 C 3.066406 1.078125 2.933594 1.042969 2.832031 1.101562 C 2.730469 1.160156 2.695312 1.289062 2.753906 1.394531 L 3.605469 2.871094 C 3.625 2.898438 3.628906 2.929688 3.617188 2.960938 C 3.609375 2.992188 3.585938 3.019531 3.558594 3.035156 L 3.472656 3.078125 C 2.703125 3.527344 2.09375 4.09375 1.660156 4.757812 C 1.25 5.390625 0.984375 6.132812 0.867188 6.96875 Z M 3.574219 5.734375 C 3.347656 5.730469 3.144531 5.59375 3.0625 5.386719 C 2.976562 5.179688 3.023438 4.941406 3.183594 4.78125 C 3.285156 4.675781 3.425781 4.621094 3.574219 4.621094 C 3.800781 4.621094 4.003906 4.753906 4.089844 4.964844 C 4.175781 5.171875 4.125 5.414062 3.964844 5.570312 C 3.859375 5.675781 3.722656 5.734375 3.574219 5.734375 Z M 3.574219 5.5 C 3.660156 5.496094 3.742188 5.464844 3.800781 5.40625 C 3.894531 5.3125 3.921875 5.175781 3.871094 5.054688 C 3.824219 4.933594 3.707031 4.851562 3.574219 4.855469 C 3.488281 4.855469 3.40625 4.886719 3.347656 4.949219 C 3.285156 5.007812 3.253906 5.089844 3.253906 5.175781 C 3.253906 5.355469 3.398438 5.496094 3.574219 5.5 Z M 8.414062 5.734375 C 8.105469 5.734375 7.855469 5.484375 7.851562 5.175781 C 7.851562 4.871094 8.101562 4.621094 8.40625 4.617188 L 8.410156 4.617188 C 8.710938 4.617188 8.96875 4.871094 8.972656 5.167969 C 8.96875 5.476562 8.726562 5.722656 8.417969 5.730469 L 8.414062 5.730469 Z M 8.414062 4.851562 L 8.410156 4.851562 C 8.324219 4.851562 8.246094 4.886719 8.183594 4.949219 C 8.125 5.007812 8.089844 5.089844 8.089844 5.175781 C 8.089844 5.261719 8.128906 5.34375 8.191406 5.402344 C 8.25 5.464844 8.332031 5.5 8.417969 5.496094 C 8.535156 5.5 8.644531 5.4375 8.703125 5.335938 C 8.761719 5.234375 8.761719 5.109375 8.699219 5.007812 C 8.640625 4.910156 8.53125 4.847656 8.414062 4.851562 Z M 8.414062 4.851562 "/>
<path style=" stroke:none;fill-rule:nonzero;fill:rgb(24.705882%,27.058824%,41.960784%);fill-opacity:1;" d="M 11.238281 11.113281 L 0.761719 11.113281 C 0.695312 11.113281 0.644531 11.0625 0.644531 10.996094 L 0.644531 7.882812 C 0.644531 7.820312 0.695312 7.765625 0.761719 7.765625 L 11.238281 7.765625 C 11.304688 7.765625 11.355469 7.820312 11.355469 7.882812 L 11.355469 10.996094 C 11.355469 11.0625 11.304688 11.113281 11.238281 11.113281 Z M 0.878906 10.878906 L 11.121094 10.878906 L 11.121094 8 L 0.878906 8 Z M 0.878906 10.878906 "/>
<path style=" stroke:none;fill-rule:nonzero;fill:rgb(24.705882%,27.058824%,41.960784%);fill-opacity:1;" d="M 1.367188 8 C 1.300781 8 1.25 7.949219 1.25 7.882812 L 1.25 7.085938 C 1.25 7.023438 1.300781 6.96875 1.367188 6.96875 C 1.429688 6.96875 1.484375 7.023438 1.484375 7.085938 L 1.484375 7.882812 C 1.484375 7.949219 1.429688 8 1.367188 8 Z M 1.367188 8 "/>
<path style=" stroke:none;fill-rule:nonzero;fill:rgb(24.705882%,27.058824%,41.960784%);fill-opacity:1;" d="M 10.660156 8 C 10.59375 8 10.542969 7.949219 10.542969 7.882812 L 10.542969 7.085938 C 10.542969 7.023438 10.59375 6.96875 10.660156 6.96875 C 10.726562 6.96875 10.777344 7.023438 10.777344 7.085938 L 10.777344 7.882812 C 10.777344 7.949219 10.726562 8 10.660156 8 Z M 10.660156 8 "/>
</g>
</svg>
