<?xml version="1.0" encoding="UTF-8"?>
<svg xmlns="http://www.w3.org/2000/svg" xmlns:xlink="http://www.w3.org/1999/xlink" width="12pt" height="12pt" viewBox="0 0 12 12" version="1.1">
<defs>
<filter id="alpha" filterUnits="objectBoundingBox" x="0%" y="0%" width="100%" height="100%">
  <feColorMatrix type="matrix" in="SourceGraphic" values="0 0 0 0 1 0 0 0 0 1 0 0 0 0 1 0 0 0 1 0"/>
</filter>
<mask id="mask0">
  <g filter="url(#alpha)">
<rect x="0" y="0" width="12" height="12" style="fill:rgb(0%,0%,0%);fill-opacity:0.2;stroke:none;"/>
  </g>
</mask>
<clipPath id="clip1">
  <rect x="0" y="0" width="12" height="12"/>
</clipPath>
<g id="surface5" clip-path="url(#clip1)">
<path style=" stroke:none;fill-rule:nonzero;fill:rgb(100%,100%,100%);fill-opacity:1;" d="M 9.433594 3.503906 L 2.570312 10.367188 C 2.285156 9.96875 2.046875 9.542969 1.851562 9.089844 C 1.648438 8.621094 1.496094 8.132812 1.390625 7.632812 C 1.289062 7.144531 1.25 6.644531 1.28125 6.144531 C 1.328125 5.40625 1.546875 4.726562 2.015625 4.144531 C 2.394531 3.660156 2.929688 3.320312 3.53125 3.183594 C 3.839844 3.113281 4.144531 3.085938 4.449219 3.15625 C 4.679688 3.210938 4.90625 3.292969 5.128906 3.367188 C 5.355469 3.441406 5.574219 3.523438 5.796875 3.589844 C 5.929688 3.632812 6.0625 3.601562 6.191406 3.554688 C 6.523438 3.4375 6.859375 3.316406 7.199219 3.207031 C 7.550781 3.097656 7.90625 3.054688 8.277344 3.109375 C 8.628906 3.160156 8.964844 3.253906 9.28125 3.417969 C 9.332031 3.445312 9.382812 3.472656 9.433594 3.503906 Z M 9.433594 3.503906 "/>
</g>
<mask id="mask1">
  <g filter="url(#alpha)">
<rect x="0" y="0" width="12" height="12" style="fill:rgb(0%,0%,0%);fill-opacity:0.2;stroke:none;"/>
  </g>
</mask>
<clipPath id="clip2">
  <rect x="0" y="0" width="12" height="12"/>
</clipPath>
<g id="surface8" clip-path="url(#clip2)">
<path style=" stroke:none;fill-rule:nonzero;fill:rgb(24.705882%,27.058824%,41.960784%);fill-opacity:1;" d="M 2.394531 10.113281 C 2.394531 10.113281 3.28125 11.25 4.335938 11.15625 C 4.335938 11.15625 4.5 11.15625 4.96875 10.96875 C 5.4375 10.78125 6.328125 10.570312 7.171875 11.015625 C 7.171875 11.015625 8.625 11.789062 9.730469 10.15625 C 9.730469 10.15625 9.117188 11.15625 8.578125 11.4375 C 8.578125 11.4375 8.007812 11.898438 6.945312 11.351562 C 6.945312 11.351562 6.101562 10.914062 5.125 11.398438 C 4.148438 11.882812 3.480469 11.742188 2.394531 10.113281 Z M 2.394531 10.113281 "/>
</g>
<mask id="mask2">
  <g filter="url(#alpha)">
<rect x="0" y="0" width="12" height="12" style="fill:rgb(0%,0%,0%);fill-opacity:0.2;stroke:none;"/>
  </g>
</mask>
<clipPath id="clip3">
  <rect x="0" y="0" width="12" height="12"/>
</clipPath>
<g id="surface11" clip-path="url(#clip3)">
<path style=" stroke:none;fill-rule:nonzero;fill:rgb(24.705882%,27.058824%,41.960784%);fill-opacity:1;" d="M 8.09375 0.445312 C 8.09375 0.445312 7.757812 2.226562 5.859375 2.976562 C 5.859375 2.976562 6.851562 3.078125 7.5625 2.148438 C 8.273438 1.21875 8.09375 0.445312 8.09375 0.445312 Z M 8.09375 0.445312 "/>
</g>
<mask id="mask3">
  <g filter="url(#alpha)">
<rect x="0" y="0" width="12" height="12" style="fill:rgb(0%,0%,0%);fill-opacity:0.301961;stroke:none;"/>
  </g>
</mask>
<clipPath id="clip4">
  <rect x="0" y="0" width="12" height="12"/>
</clipPath>
<g id="surface14" clip-path="url(#clip4)">
<path style=" stroke:none;fill-rule:nonzero;fill:rgb(100%,100%,100%);fill-opacity:1;" d="M 5.878906 2.980469 C 5.878906 2.980469 6.214844 1.199219 8.113281 0.449219 C 8.113281 0.449219 7.121094 0.347656 6.410156 1.277344 C 5.699219 2.207031 5.878906 2.980469 5.878906 2.980469 Z M 5.878906 2.980469 "/>
</g>
<mask id="mask4">
  <g filter="url(#alpha)">
<rect x="0" y="0" width="12" height="12" style="fill:rgb(0%,0%,0%);fill-opacity:0.301961;stroke:none;"/>
  </g>
</mask>
<clipPath id="clip5">
  <rect x="0" y="0" width="12" height="12"/>
</clipPath>
<g id="surface17" clip-path="url(#clip5)">
<path style=" stroke:none;fill-rule:nonzero;fill:rgb(100%,100%,100%);fill-opacity:1;" d="M 1.554688 4.875 C 1.671875 4.640625 1.929688 4.433594 2.125 4.277344 C 2.890625 3.667969 3.894531 3.429688 4.820312 3.765625 C 5.316406 3.945312 5.875 4.289062 6.40625 4.023438 C 7.550781 3.449219 9.128906 3.222656 10.125 4.21875 C 10.125 4.21875 9.210938 2.71875 7.300781 3.175781 L 6.363281 3.492188 C 6.363281 3.492188 5.953125 3.785156 5.320312 3.4375 C 4.6875 3.09375 2.734375 2.507812 1.554688 4.875 Z M 1.554688 4.875 "/>
</g>
<mask id="mask5">
  <g filter="url(#alpha)">
<rect x="0" y="0" width="12" height="12" style="fill:rgb(0%,0%,0%);fill-opacity:0.2;stroke:none;"/>
  </g>
</mask>
<clipPath id="clip6">
  <rect x="0" y="0" width="12" height="12"/>
</clipPath>
<g id="surface20" clip-path="url(#clip6)">
<path style=" stroke:none;fill-rule:nonzero;fill:rgb(24.705882%,27.058824%,41.960784%);fill-opacity:1;" d="M 9.84375 3.84375 C 9.84375 3.84375 8.695312 4.523438 8.929688 6.292969 C 8.929688 6.292969 8.859375 4.945312 10.125 4.21875 Z M 9.84375 3.84375 "/>
</g>
<mask id="mask6">
  <g filter="url(#alpha)">
<rect x="0" y="0" width="12" height="12" style="fill:rgb(0%,0%,0%);fill-opacity:0.301961;stroke:none;"/>
  </g>
</mask>
<clipPath id="clip7">
  <rect x="0" y="0" width="12" height="12"/>
</clipPath>
<g id="surface23" clip-path="url(#clip7)">
<path style=" stroke:none;fill-rule:nonzero;fill:rgb(100%,100%,100%);fill-opacity:1;" d="M 10.3125 9.046875 C 10.3125 9.046875 8.507812 8.226562 8.929688 6.375 C 8.929688 6.375 8.765625 7.828125 10.453125 8.648438 Z M 10.3125 9.046875 "/>
</g>
</defs>
<g id="surface1">
<path style=" stroke:none;fill-rule:nonzero;fill:rgb(72.941176%,76.078431%,82.745098%);fill-opacity:1;" d="M 10.148438 4.210938 C 9.296875 4.742188 8.878906 5.507812 8.949219 6.511719 C 9.015625 7.511719 9.558594 8.203125 10.449219 8.648438 C 10.40625 8.777344 10.363281 8.90625 10.3125 9.03125 C 10.042969 9.710938 9.660156 10.324219 9.1875 10.886719 C 9.007812 11.097656 8.8125 11.292969 8.570312 11.4375 C 8.226562 11.640625 7.859375 11.660156 7.484375 11.539062 C 7.257812 11.46875 7.03125 11.375 6.804688 11.300781 C 6.46875 11.1875 6.128906 11.144531 5.773438 11.195312 C 5.433594 11.246094 5.128906 11.390625 4.808594 11.5 C 4.5625 11.582031 4.316406 11.652344 4.050781 11.613281 C 3.765625 11.570312 3.523438 11.429688 3.316406 11.230469 C 2.679688 10.621094 2.203125 9.898438 1.851562 9.089844 C 1.648438 8.621094 1.492188 8.132812 1.390625 7.632812 C 1.289062 7.144531 1.25 6.644531 1.28125 6.144531 C 1.328125 5.40625 1.546875 4.726562 2.011719 4.144531 C 2.394531 3.660156 2.929688 3.320312 3.53125 3.183594 C 3.839844 3.113281 4.144531 3.085938 4.449219 3.15625 C 4.679688 3.210938 4.902344 3.292969 5.128906 3.367188 C 5.355469 3.441406 5.570312 3.523438 5.796875 3.589844 C 5.929688 3.632812 6.0625 3.601562 6.1875 3.554688 C 6.523438 3.4375 6.855469 3.316406 7.195312 3.207031 C 7.546875 3.097656 7.90625 3.054688 8.277344 3.109375 C 8.628906 3.160156 8.964844 3.253906 9.277344 3.417969 C 9.625 3.59375 9.894531 3.851562 10.125 4.15625 C 10.136719 4.175781 10.144531 4.191406 10.148438 4.210938 Z M 10.148438 4.210938 "/>
<use xlink:href="#surface5" mask="url(#mask0)"/>
<path style=" stroke:none;fill-rule:nonzero;fill:rgb(85.490196%,88.235294%,91.764706%);fill-opacity:1;" d="M 5.871094 2.964844 C 5.695312 1.921875 6.644531 0.515625 8.113281 0.375 C 8.113281 0.507812 8.121094 0.640625 8.109375 0.773438 C 8.054688 1.445312 7.742188 1.992188 7.265625 2.449219 C 6.964844 2.730469 6.609375 2.910156 6.199219 2.960938 C 6.09375 2.976562 5.984375 2.964844 5.871094 2.964844 Z M 5.871094 2.964844 "/>
<path style=" stroke:none;fill-rule:nonzero;fill:rgb(72.941176%,76.078431%,82.745098%);fill-opacity:1;" d="M 5.871094 2.964844 C 5.695312 1.921875 6.644531 0.515625 8.113281 0.375 C 8.113281 0.507812 8.121094 0.640625 8.109375 0.773438 C 8.054688 1.445312 7.742188 1.992188 7.265625 2.449219 C 6.964844 2.730469 6.609375 2.910156 6.199219 2.960938 C 6.09375 2.976562 5.984375 2.964844 5.871094 2.964844 Z M 5.871094 2.964844 "/>
<use xlink:href="#surface8" mask="url(#mask1)"/>
<use xlink:href="#surface11" mask="url(#mask2)"/>
<use xlink:href="#surface14" mask="url(#mask3)"/>
<use xlink:href="#surface17" mask="url(#mask4)"/>
<use xlink:href="#surface20" mask="url(#mask5)"/>
<use xlink:href="#surface23" mask="url(#mask6)"/>
<path style=" stroke:none;fill-rule:nonzero;fill:rgb(24.705882%,27.058824%,41.960784%);fill-opacity:1;" d="M 4.210938 11.742188 C 4.152344 11.742188 4.09375 11.738281 4.035156 11.730469 C 3.746094 11.683594 3.480469 11.546875 3.238281 11.316406 C 2.621094 10.726562 2.117188 9.996094 1.746094 9.136719 C 1.539062 8.660156 1.382812 8.164062 1.277344 7.65625 C 1.171875 7.15625 1.132812 6.644531 1.164062 6.136719 C 1.214844 5.328125 1.46875 4.632812 1.921875 4.070312 C 2.320312 3.566406 2.878906 3.214844 3.503906 3.070312 C 3.867188 2.984375 4.183594 2.976562 4.476562 3.042969 C 4.652344 3.085938 4.824219 3.136719 4.996094 3.199219 C 5.050781 3.21875 5.109375 3.238281 5.167969 3.257812 C 5.257812 3.285156 5.351562 3.316406 5.441406 3.347656 C 5.570312 3.390625 5.699219 3.4375 5.832031 3.476562 C 5.933594 3.511719 6.046875 3.480469 6.152344 3.445312 C 6.246094 3.410156 6.339844 3.378906 6.433594 3.34375 C 6.671875 3.261719 6.917969 3.171875 7.164062 3.097656 C 7.558594 2.972656 7.929688 2.9375 8.296875 2.992188 C 8.683594 3.050781 9.023438 3.152344 9.332031 3.3125 C 9.664062 3.480469 9.953125 3.734375 10.21875 4.085938 C 10.234375 4.105469 10.242188 4.125 10.25 4.148438 C 10.253906 4.152344 10.253906 4.15625 10.257812 4.164062 C 10.28125 4.21875 10.261719 4.277344 10.210938 4.308594 C 9.390625 4.824219 9.003906 5.5625 9.066406 6.5 C 9.128906 7.421875 9.597656 8.089844 10.503906 8.542969 C 10.558594 8.570312 10.582031 8.632812 10.5625 8.6875 C 10.546875 8.726562 10.535156 8.765625 10.519531 8.808594 C 10.492188 8.894531 10.460938 8.984375 10.425781 9.074219 C 10.160156 9.738281 9.773438 10.375 9.277344 10.960938 C 9.125 11.140625 8.914062 11.371094 8.628906 11.539062 C 8.273438 11.746094 7.875 11.785156 7.453125 11.652344 C 7.320312 11.609375 7.191406 11.5625 7.066406 11.515625 C 6.96875 11.480469 6.867188 11.441406 6.769531 11.410156 C 6.429688 11.296875 6.113281 11.265625 5.792969 11.3125 C 5.5625 11.34375 5.347656 11.425781 5.121094 11.511719 C 5.03125 11.546875 4.941406 11.578125 4.847656 11.609375 C 4.648438 11.679688 4.4375 11.742188 4.210938 11.742188 Z M 4.074219 3.230469 C 3.902344 3.234375 3.726562 3.257812 3.558594 3.300781 C 2.984375 3.429688 2.472656 3.753906 2.105469 4.21875 C 1.683594 4.742188 1.445312 5.394531 1.398438 6.152344 C 1.371094 6.640625 1.40625 7.128906 1.507812 7.609375 C 1.609375 8.101562 1.761719 8.582031 1.960938 9.042969 C 2.324219 9.886719 2.796875 10.574219 3.398438 11.148438 C 3.605469 11.34375 3.828125 11.460938 4.070312 11.5 C 4.3125 11.535156 4.550781 11.464844 4.769531 11.390625 C 4.859375 11.359375 4.949219 11.328125 5.035156 11.292969 C 5.265625 11.207031 5.5 11.117188 5.757812 11.082031 C 6.113281 11.027344 6.46875 11.0625 6.84375 11.1875 C 6.945312 11.222656 7.046875 11.261719 7.148438 11.296875 C 7.273438 11.34375 7.398438 11.390625 7.523438 11.429688 C 7.886719 11.542969 8.210938 11.511719 8.511719 11.335938 C 8.710938 11.21875 8.890625 11.058594 9.101562 10.808594 C 9.578125 10.242188 9.949219 9.628906 10.207031 8.988281 C 10.242188 8.90625 10.269531 8.816406 10.300781 8.730469 L 10.308594 8.707031 C 9.394531 8.21875 8.898438 7.480469 8.832031 6.515625 C 8.765625 5.523438 9.15625 4.734375 9.992188 4.171875 C 9.757812 3.878906 9.507812 3.664062 9.226562 3.519531 C 8.941406 3.375 8.625 3.277344 8.261719 3.222656 C 7.929688 3.175781 7.59375 3.207031 7.234375 3.320312 C 6.992188 3.394531 6.746094 3.480469 6.511719 3.566406 C 6.417969 3.597656 6.324219 3.632812 6.230469 3.664062 C 6.09375 3.710938 5.933594 3.753906 5.765625 3.703125 C 5.628906 3.660156 5.496094 3.613281 5.367188 3.570312 C 5.277344 3.539062 5.1875 3.507812 5.09375 3.480469 C 5.039062 3.460938 4.976562 3.441406 4.921875 3.421875 C 4.757812 3.363281 4.59375 3.3125 4.425781 3.269531 C 4.3125 3.246094 4.195312 3.230469 4.074219 3.234375 Z M 4.074219 3.230469 "/>
<path style=" stroke:none;fill-rule:nonzero;fill:rgb(24.705882%,27.058824%,41.960784%);fill-opacity:1;" d="M 6.082031 3.085938 C 6.046875 3.085938 6.011719 3.085938 5.976562 3.082031 C 5.941406 3.082031 5.90625 3.082031 5.871094 3.082031 C 5.816406 3.082031 5.765625 3.039062 5.757812 2.984375 C 5.667969 2.449219 5.851562 1.820312 6.253906 1.300781 C 6.707031 0.707031 7.382812 0.328125 8.101562 0.257812 C 8.132812 0.253906 8.167969 0.265625 8.191406 0.289062 C 8.214844 0.308594 8.230469 0.34375 8.230469 0.375 C 8.230469 0.417969 8.230469 0.457031 8.230469 0.5 C 8.234375 0.59375 8.234375 0.6875 8.226562 0.78125 C 8.171875 1.4375 7.875 2.027344 7.34375 2.53125 C 7.039062 2.832031 6.640625 3.023438 6.214844 3.078125 C 6.171875 3.082031 6.125 3.085938 6.082031 3.085938 Z M 5.976562 2.847656 L 5.984375 2.847656 C 6.050781 2.851562 6.117188 2.851562 6.1875 2.84375 C 6.5625 2.796875 6.914062 2.628906 7.183594 2.363281 C 7.679688 1.890625 7.945312 1.367188 7.992188 0.761719 C 8 0.675781 8 0.59375 7.996094 0.507812 C 7.390625 0.597656 6.828125 0.933594 6.4375 1.441406 C 6.101562 1.882812 5.933594 2.398438 5.976562 2.847656 Z M 5.976562 2.847656 "/>
</g>
</svg>
