<?xml version="1.0" encoding="UTF-8"?>
<svg xmlns="http://www.w3.org/2000/svg" xmlns:xlink="http://www.w3.org/1999/xlink" width="12pt" height="12pt" viewBox="0 0 12 12" version="1.1">
<defs>
<filter id="alpha" filterUnits="objectBoundingBox" x="0%" y="0%" width="100%" height="100%">
  <feColorMatrix type="matrix" in="SourceGraphic" values="0 0 0 0 1 0 0 0 0 1 0 0 0 0 1 0 0 0 1 0"/>
</filter>
<mask id="mask0">
  <g filter="url(#alpha)">
<rect x="0" y="0" width="12" height="12" style="fill:rgb(0%,0%,0%);fill-opacity:0.14902;stroke:none;"/>
  </g>
</mask>
<clipPath id="clip1">
  <rect x="0" y="0" width="12" height="12"/>
</clipPath>
<g id="surface5" clip-path="url(#clip1)">
<path style=" stroke:none;fill-rule:nonzero;fill:rgb(24.705882%,27.058824%,41.960784%);fill-opacity:1;" d="M 0.796875 10.265625 C 0.796875 10.265625 0.773438 10.6875 1.3125 10.6875 C 1.851562 10.6875 2.882812 10.992188 3.257812 11.179688 C 3.632812 11.367188 4.6875 11.460938 4.898438 10.722656 C 4.898438 10.722656 5.121094 11.414062 4.210938 11.636719 C 4.210938 11.636719 3.679688 11.757812 3.070312 11.46875 C 2.460938 11.179688 1.570312 10.992188 1.265625 11.015625 C 0.960938 11.039062 0.609375 10.804688 0.796875 10.265625 Z M 0.796875 10.265625 "/>
</g>
<mask id="mask1">
  <g filter="url(#alpha)">
<rect x="0" y="0" width="12" height="12" style="fill:rgb(0%,0%,0%);fill-opacity:0.14902;stroke:none;"/>
  </g>
</mask>
<clipPath id="clip2">
  <rect x="0" y="0" width="12" height="12"/>
</clipPath>
<g id="surface8" clip-path="url(#clip2)">
<path style=" stroke:none;fill-rule:nonzero;fill:rgb(24.705882%,27.058824%,41.960784%);fill-opacity:1;" d="M 4.871094 10.65625 C 4.871094 10.65625 6.242188 10.273438 7.445312 10.808594 L 7.453125 11.179688 C 7.453125 11.179688 6.488281 10.609375 4.933594 10.976562 Z M 4.871094 10.65625 "/>
</g>
<mask id="mask2">
  <g filter="url(#alpha)">
<rect x="0" y="0" width="12" height="12" style="fill:rgb(0%,0%,0%);fill-opacity:0.14902;stroke:none;"/>
  </g>
</mask>
<clipPath id="clip3">
  <rect x="0" y="0" width="12" height="12"/>
</clipPath>
<g id="surface11" clip-path="url(#clip3)">
<path style=" stroke:none;fill-rule:nonzero;fill:rgb(24.705882%,27.058824%,41.960784%);fill-opacity:1;" d="M 7.453125 11.179688 C 7.453125 11.179688 7.78125 11.578125 8.578125 11.390625 C 8.578125 11.390625 9.046875 11.226562 9.46875 10.78125 C 9.890625 10.335938 10.265625 10.171875 10.59375 10.054688 C 10.921875 9.9375 11.179688 9.765625 11.15625 9.476562 C 11.15625 9.476562 11.542969 10.007812 10.9375 10.253906 C 10.9375 10.253906 10.441406 10.382812 10 10.851562 C 9.5625 11.320312 8.964844 11.765625 8.359375 11.765625 C 7.757812 11.765625 7.546875 11.484375 7.453125 11.179688 Z M 7.453125 11.179688 "/>
</g>
<mask id="mask3">
  <g filter="url(#alpha)">
<rect x="0" y="0" width="12" height="12" style="fill:rgb(0%,0%,0%);fill-opacity:0.25098;stroke:none;"/>
  </g>
</mask>
<clipPath id="clip4">
  <rect x="0" y="0" width="12" height="12"/>
</clipPath>
<g id="surface14" clip-path="url(#clip4)">
<path style=" stroke:none;fill-rule:nonzero;fill:rgb(24.705882%,27.058824%,41.960784%);fill-opacity:1;" d="M 10.230469 6.457031 C 10.230469 6.457031 10.476562 8.203125 9.023438 8.625 C 9.023438 8.625 8.59375 8.71875 8.539062 8.332031 C 8.539062 8.332031 8.332031 9.011719 8.96875 8.992188 C 9.609375 8.976562 10.710938 8.34375 10.230469 6.457031 Z M 10.230469 6.457031 "/>
</g>
<mask id="mask4">
  <g filter="url(#alpha)">
<rect x="0" y="0" width="12" height="12" style="fill:rgb(0%,0%,0%);fill-opacity:0.25098;stroke:none;"/>
  </g>
</mask>
<clipPath id="clip5">
  <rect x="0" y="0" width="12" height="12"/>
</clipPath>
<g id="surface17" clip-path="url(#clip5)">
<path style=" stroke:none;fill-rule:nonzero;fill:rgb(24.705882%,27.058824%,41.960784%);fill-opacity:1;" d="M 4.621094 8.929688 C 4.621094 8.929688 4.453125 9.632812 3.867188 9.1875 L 4.195312 9.726562 C 4.195312 9.726562 4.859375 9.613281 4.621094 8.929688 Z M 4.621094 8.929688 "/>
</g>
<mask id="mask5">
  <g filter="url(#alpha)">
<rect x="0" y="0" width="12" height="12" style="fill:rgb(0%,0%,0%);fill-opacity:0.101961;stroke:none;"/>
  </g>
</mask>
<clipPath id="clip6">
  <rect x="0" y="0" width="12" height="12"/>
</clipPath>
<g id="surface20" clip-path="url(#clip6)">
<path style=" stroke:none;fill-rule:nonzero;fill:rgb(100%,100%,100%);fill-opacity:1;" d="M 6.914062 0.714844 C 6.914062 0.539062 6.484375 0.398438 5.953125 0.398438 C 5.421875 0.398438 4.992188 0.539062 4.992188 0.714844 C 4.992188 0.890625 5.421875 1.03125 5.953125 1.03125 C 6.484375 1.03125 6.914062 0.890625 6.914062 0.714844 Z M 6.914062 0.714844 "/>
</g>
<mask id="mask6">
  <g filter="url(#alpha)">
<rect x="0" y="0" width="12" height="12" style="fill:rgb(0%,0%,0%);fill-opacity:0.101961;stroke:none;"/>
  </g>
</mask>
<clipPath id="clip7">
  <rect x="0" y="0" width="12" height="12"/>
</clipPath>
<g id="surface23" clip-path="url(#clip7)">
<path style=" stroke:none;fill-rule:nonzero;fill:rgb(100%,100%,100%);fill-opacity:1;" d="M 6.1875 2.988281 C 6.1875 2.8125 5.917969 2.671875 5.589844 2.671875 C 5.261719 2.671875 4.992188 2.8125 4.992188 2.988281 C 4.992188 3.164062 5.261719 3.304688 5.589844 3.304688 C 5.917969 3.304688 6.1875 3.164062 6.1875 2.988281 Z M 6.1875 2.988281 "/>
</g>
</defs>
<g id="surface1">
<path style=" stroke:none;fill-rule:nonzero;fill:rgb(100%,73.72549%,35.294118%);fill-opacity:1;" d="M 11.03125 9.359375 C 11.230469 9.484375 11.292969 9.722656 11.21875 9.929688 C 11.160156 10.109375 10.992188 10.246094 10.8125 10.3125 C 10.136719 10.550781 9.773438 11.125 9.195312 11.488281 C 8.804688 11.730469 8.3125 11.859375 7.859375 11.6875 C 7.625 11.601562 7.5 11.402344 7.457031 11.164062 C 7.410156 10.898438 7.457031 10.585938 7.558594 10.332031 C 7.675781 10.042969 7.664062 9.738281 7.636719 9.546875 C 7.625 9.476562 7.613281 9.410156 7.59375 9.339844 C 7.535156 9.085938 7.554688 8.820312 7.65625 8.574219 C 7.722656 8.402344 7.859375 8.265625 8.035156 8.203125 C 8.207031 8.136719 8.402344 8.148438 8.566406 8.234375 C 8.4375 8.65625 8.53125 8.925781 8.839844 8.984375 C 9.199219 9.054688 9.796875 8.851562 10.105469 8.316406 C 10.308594 8.304688 10.484375 8.398438 10.582031 8.566406 C 10.683594 8.753906 10.632812 8.992188 10.761719 9.164062 C 10.828125 9.25 10.933594 9.300781 11.03125 9.359375 Z M 11.03125 9.359375 "/>
<path style=" stroke:none;fill-rule:nonzero;fill:rgb(46.27451%,48.627451%,57.647059%);fill-opacity:1;" d="M 8.566406 8.234375 C 8.441406 8.171875 8.300781 8.148438 8.164062 8.167969 L 8.164062 8.160156 C 8.601562 7.082031 7.992188 6.339844 7.378906 5.339844 C 6.777344 4.351562 7.019531 3.816406 7.027344 3.800781 C 7.183594 3.683594 7.289062 3.558594 7.300781 3.460938 C 7.339844 3.191406 7.054688 3.136719 6.976562 3.121094 C 6.925781 3.109375 6.804688 3.105469 6.628906 3.046875 C 7.027344 2.652344 6.957031 2.152344 6.746094 1.972656 C 6.535156 1.792969 6.191406 1.792969 6.019531 2.152344 C 5.847656 2.511719 5.941406 2.734375 5.941406 2.734375 C 5.777344 2.679688 5.605469 2.667969 5.4375 2.695312 L 5.429688 2.652344 C 5.480469 2.472656 5.523438 2.304688 5.484375 2.117188 C 5.457031 1.96875 5.347656 1.847656 5.203125 1.800781 C 4.96875 1.726562 4.789062 1.898438 4.714844 2.09375 C 4.617188 2.367188 4.648438 2.695312 4.878906 2.902344 L 4.878906 2.90625 C 4.5 3.15625 4.589844 3.496094 4.589844 3.496094 C 4.609375 3.640625 4.671875 3.773438 4.761719 3.886719 C 4.761719 3.886719 4.761719 4.660156 4.246094 5.285156 C 3.730469 5.910156 2.792969 7.378906 3.863281 8.09375 C 4.933594 8.8125 4.835938 9.625 4.207031 9.71875 C 3.78125 9.175781 3.324219 8.25 2.964844 7.988281 C 2.765625 7.84375 2.5625 7.863281 2.390625 7.960938 L 2.382812 7.933594 C 2.339844 7.335938 2.496094 6.738281 2.761719 6.199219 C 3.035156 5.652344 3.46875 5.253906 3.828125 4.769531 C 4.050781 4.464844 4.128906 4.089844 4.171875 3.730469 C 4.316406 2.5 4.035156 0.433594 5.921875 0.398438 C 7.726562 0.367188 7.816406 1.890625 7.828125 2.296875 C 7.835938 2.703125 7.828125 3.65625 8.5625 4.3125 C 9.296875 4.96875 11.007812 6.4375 10.152344 8.222656 C 10.136719 8.257812 10.121094 8.289062 10.105469 8.316406 C 9.796875 8.855469 9.199219 9.054688 8.839844 8.988281 C 8.53125 8.925781 8.4375 8.65625 8.566406 8.234375 Z M 8.566406 8.234375 "/>
<path style=" stroke:none;fill-rule:nonzero;fill:rgb(96.078431%,96.470588%,96.862745%);fill-opacity:1;" d="M 7.378906 5.339844 C 7.992188 6.339844 8.601562 7.082031 8.164062 8.160156 L 8.164062 8.167969 C 7.933594 8.203125 7.742188 8.359375 7.65625 8.574219 C 7.558594 8.820312 7.535156 9.085938 7.59375 9.339844 C 7.613281 9.410156 7.625 9.476562 7.636719 9.546875 C 7.492188 9.800781 6.75 10.367188 5.8125 10.367188 C 4.90625 10.367188 4.449219 9.980469 4.421875 9.957031 L 4.417969 9.957031 C 4.34375 9.882812 4.273438 9.804688 4.207031 9.71875 C 4.835938 9.625 4.933594 8.8125 3.863281 8.09375 C 2.796875 7.378906 3.730469 5.910156 4.246094 5.285156 C 4.761719 4.660156 4.765625 3.886719 4.765625 3.886719 C 4.988281 4.152344 5.394531 4.238281 5.890625 4.210938 C 6.324219 4.1875 6.757812 4 7.027344 3.800781 C 7.019531 3.8125 6.777344 4.351562 7.378906 5.339844 Z M 7.378906 5.339844 "/>
<path style=" stroke:none;fill-rule:nonzero;fill:rgb(46.27451%,48.627451%,57.647059%);fill-opacity:1;" d="M 7.636719 9.546875 C 7.664062 9.738281 7.675781 10.042969 7.558594 10.332031 C 7.460938 10.585938 7.410156 10.898438 7.457031 11.164062 L 7.40625 11.175781 C 6.285156 10.617188 4.933594 10.976562 4.933594 10.976562 L 4.921875 10.976562 C 4.933594 10.707031 4.78125 10.296875 4.417969 9.957031 C 4.445312 9.980469 4.90625 10.367188 5.8125 10.367188 C 6.75 10.367188 7.488281 9.800781 7.632812 9.546875 Z M 7.636719 9.546875 "/>
<path style=" stroke:none;fill-rule:nonzero;fill:rgb(100%,73.72549%,35.294118%);fill-opacity:1;" d="M 4.589844 3.496094 C 4.589844 3.496094 4.5 3.15625 4.878906 2.90625 C 4.933594 2.871094 4.988281 2.839844 5.046875 2.816406 C 5.171875 2.757812 5.304688 2.71875 5.4375 2.695312 C 5.609375 2.667969 5.78125 2.679688 5.941406 2.734375 C 6.070312 2.777344 6.195312 2.835938 6.308594 2.90625 C 6.410156 2.964844 6.519531 3.011719 6.628906 3.046875 C 6.804688 3.101562 6.929688 3.105469 6.976562 3.117188 C 7.054688 3.136719 7.339844 3.191406 7.300781 3.457031 C 7.289062 3.558594 7.183594 3.679688 7.027344 3.796875 C 6.757812 4 6.324219 4.1875 5.890625 4.210938 C 5.394531 4.234375 4.988281 4.148438 4.765625 3.886719 C 4.671875 3.773438 4.609375 3.640625 4.589844 3.496094 Z M 4.589844 3.496094 "/>
<path style=" stroke:none;fill-rule:nonzero;fill:rgb(96.078431%,96.470588%,96.862745%);fill-opacity:1;" d="M 6.75 1.972656 C 6.960938 2.152344 7.027344 2.652344 6.632812 3.046875 C 6.519531 3.011719 6.410156 2.964844 6.308594 2.90625 C 6.195312 2.835938 6.070312 2.777344 5.945312 2.734375 C 5.945312 2.734375 5.851562 2.511719 6.023438 2.152344 C 6.195312 1.792969 6.539062 1.792969 6.75 1.972656 Z M 6.75 1.972656 "/>
<path style=" stroke:none;fill-rule:nonzero;fill:rgb(96.078431%,96.470588%,96.862745%);fill-opacity:1;" d="M 5.488281 2.117188 C 5.527344 2.304688 5.480469 2.472656 5.433594 2.652344 L 5.4375 2.695312 C 5.304688 2.71875 5.171875 2.757812 5.046875 2.816406 C 4.988281 2.839844 4.933594 2.871094 4.878906 2.90625 L 4.878906 2.902344 C 4.648438 2.691406 4.617188 2.367188 4.714844 2.09375 C 4.789062 1.898438 4.96875 1.726562 5.203125 1.800781 C 5.351562 1.847656 5.460938 1.96875 5.488281 2.117188 Z M 5.488281 2.117188 "/>
<path style=" stroke:none;fill-rule:nonzero;fill:rgb(100%,73.72549%,35.294118%);fill-opacity:1;" d="M 4.417969 9.957031 C 4.777344 10.296875 4.933594 10.703125 4.921875 10.976562 C 4.921875 11.054688 4.898438 11.128906 4.855469 11.191406 C 4.703125 11.40625 4.246094 11.925781 3.234375 11.515625 C 2.601562 11.261719 1.941406 11.09375 1.265625 11.011719 C 1.265625 11.011719 0.671875 11.03125 0.804688 10.402344 C 0.941406 9.777344 0.789062 9.5625 0.804688 9.328125 C 0.804688 9.328125 0.691406 8.71875 1.457031 8.667969 C 1.457031 8.667969 1.820312 8.683594 1.972656 8.398438 C 2.050781 8.25 2.203125 8.0625 2.390625 7.960938 C 2.5625 7.867188 2.765625 7.84375 2.964844 7.988281 C 3.324219 8.25 3.78125 9.175781 4.207031 9.71875 C 4.269531 9.804688 4.339844 9.882812 4.417969 9.957031 Z M 4.417969 9.957031 "/>
<use xlink:href="#surface5" mask="url(#mask0)"/>
<use xlink:href="#surface8" mask="url(#mask1)"/>
<use xlink:href="#surface11" mask="url(#mask2)"/>
<use xlink:href="#surface14" mask="url(#mask3)"/>
<use xlink:href="#surface17" mask="url(#mask4)"/>
<use xlink:href="#surface20" mask="url(#mask5)"/>
<use xlink:href="#surface23" mask="url(#mask6)"/>
<path style=" stroke:none;fill-rule:nonzero;fill:rgb(24.705882%,27.058824%,41.960784%);fill-opacity:1;" d="M 8.984375 9.117188 C 8.929688 9.117188 8.871094 9.113281 8.816406 9.101562 C 8.648438 9.070312 8.523438 8.980469 8.453125 8.84375 C 8.339844 8.625 8.382812 8.300781 8.578125 7.882812 C 8.824219 7.351562 8.410156 6.65625 8.40625 6.648438 C 8.371094 6.59375 8.390625 6.519531 8.445312 6.488281 C 8.5 6.453125 8.574219 6.472656 8.605469 6.527344 C 8.625 6.558594 9.089844 7.339844 8.789062 7.984375 C 8.632812 8.320312 8.585938 8.589844 8.660156 8.738281 C 8.699219 8.808594 8.761719 8.851562 8.863281 8.871094 C 9.191406 8.933594 9.785156 8.726562 10.046875 8.175781 C 10.84375 6.507812 9.285156 5.113281 8.535156 4.445312 L 8.484375 4.398438 C 7.746094 3.738281 7.722656 2.804688 7.710938 2.359375 L 7.710938 2.300781 C 7.699219 1.878906 7.609375 1.523438 7.445312 1.242188 C 7.164062 0.761719 6.671875 0.515625 5.976562 0.515625 L 5.925781 0.515625 C 5.269531 0.527344 4.855469 0.785156 4.617188 1.332031 C 4.402344 1.820312 4.371094 2.472656 4.339844 3.046875 C 4.324219 3.292969 4.3125 3.53125 4.289062 3.742188 C 4.25 4.074219 4.171875 4.496094 3.921875 4.835938 C 3.796875 5.011719 3.660156 5.171875 3.527344 5.328125 C 3.277344 5.625 3.039062 5.90625 2.871094 6.25 C 2.589844 6.808594 2.464844 7.390625 2.5 7.921875 C 2.503906 7.988281 2.457031 8.042969 2.390625 8.046875 C 2.324219 8.054688 2.269531 8.003906 2.265625 7.9375 C 2.226562 7.363281 2.363281 6.742188 2.660156 6.144531 C 2.84375 5.777344 3.097656 5.472656 3.347656 5.179688 C 3.476562 5.023438 3.609375 4.863281 3.734375 4.699219 C 3.949219 4.402344 4.019531 4.035156 4.054688 3.714844 C 4.078125 3.507812 4.09375 3.277344 4.105469 3.03125 C 4.136719 2.4375 4.171875 1.765625 4.402344 1.238281 C 4.675781 0.605469 5.171875 0.292969 5.921875 0.28125 C 6.734375 0.265625 7.3125 0.550781 7.648438 1.125 C 7.832031 1.441406 7.929688 1.832031 7.945312 2.292969 L 7.945312 2.351562 C 7.953125 2.765625 7.976562 3.628906 8.640625 4.222656 L 8.691406 4.269531 C 9.082031 4.621094 9.675781 5.152344 10.082031 5.828125 C 10.578125 6.664062 10.636719 7.484375 10.257812 8.273438 C 10.117188 8.574219 9.878906 8.816406 9.582031 8.964844 C 9.398438 9.058594 9.191406 9.113281 8.984375 9.117188 Z M 8.984375 9.117188 "/>
<path style=" stroke:none;fill-rule:nonzero;fill:rgb(24.705882%,27.058824%,41.960784%);fill-opacity:1;" d="M 8.292969 11.882812 C 8.132812 11.882812 7.972656 11.855469 7.820312 11.796875 C 7.636719 11.730469 7.488281 11.589844 7.410156 11.40625 C 7.253906 11.054688 7.328125 10.597656 7.449219 10.289062 C 7.621094 9.855469 7.480469 9.378906 7.480469 9.375 L 7.476562 9.367188 C 7.414062 9.089844 7.441406 8.796875 7.546875 8.53125 C 7.628906 8.328125 7.789062 8.167969 7.996094 8.09375 C 8.199219 8.015625 8.425781 8.03125 8.617188 8.128906 C 8.65625 8.148438 8.683594 8.1875 8.6875 8.230469 C 8.6875 8.269531 8.667969 8.3125 8.632812 8.335938 C 8.597656 8.359375 8.550781 8.359375 8.511719 8.339844 C 8.378906 8.269531 8.21875 8.257812 8.078125 8.3125 C 7.933594 8.367188 7.820312 8.476562 7.765625 8.617188 C 7.675781 8.839844 7.65625 9.078125 7.707031 9.3125 C 7.722656 9.367188 7.863281 9.882812 7.667969 10.375 C 7.539062 10.707031 7.519531 11.074219 7.625 11.3125 C 7.675781 11.433594 7.777344 11.53125 7.902344 11.578125 C 8.269531 11.714844 8.71875 11.644531 9.132812 11.386719 C 9.355469 11.246094 9.550781 11.070312 9.738281 10.898438 C 10.035156 10.628906 10.34375 10.351562 10.773438 10.199219 C 10.933594 10.140625 11.0625 10.023438 11.109375 9.890625 C 11.167969 9.722656 11.113281 9.550781 10.96875 9.460938 C 10.949219 9.445312 10.925781 9.4375 10.90625 9.421875 C 10.824219 9.375 10.734375 9.320312 10.667969 9.234375 C 10.578125 9.117188 10.558594 8.984375 10.542969 8.863281 C 10.527344 8.777344 10.515625 8.691406 10.476562 8.625 C 10.402344 8.496094 10.261719 8.421875 10.109375 8.433594 C 10.046875 8.4375 9.992188 8.386719 9.988281 8.324219 C 9.984375 8.257812 10.035156 8.203125 10.097656 8.199219 C 10.347656 8.1875 10.5625 8.300781 10.679688 8.511719 C 10.742188 8.613281 10.757812 8.730469 10.773438 8.828125 C 10.789062 8.933594 10.800781 9.023438 10.855469 9.09375 C 10.890625 9.140625 10.957031 9.179688 11.027344 9.21875 C 11.046875 9.234375 11.070312 9.246094 11.09375 9.261719 C 11.328125 9.40625 11.425781 9.699219 11.332031 9.96875 C 11.261719 10.171875 11.082031 10.339844 10.851562 10.421875 C 10.464844 10.558594 10.1875 10.808594 9.894531 11.074219 C 9.699219 11.25 9.496094 11.433594 9.257812 11.585938 C 8.945312 11.78125 8.609375 11.882812 8.292969 11.882812 Z M 8.292969 11.882812 "/>
<path style=" stroke:none;fill-rule:nonzero;fill:rgb(24.705882%,27.058824%,41.960784%);fill-opacity:1;" d="M 3.9375 11.785156 C 3.722656 11.785156 3.476562 11.738281 3.191406 11.621094 C 2.570312 11.375 1.921875 11.210938 1.261719 11.128906 C 1.207031 11.128906 0.945312 11.117188 0.789062 10.929688 C 0.675781 10.792969 0.644531 10.609375 0.691406 10.378906 C 0.777344 9.980469 0.742188 9.765625 0.714844 9.589844 C 0.695312 9.503906 0.6875 9.421875 0.691406 9.335938 C 0.679688 9.269531 0.664062 9.035156 0.816406 8.835938 C 0.949219 8.667969 1.160156 8.570312 1.449219 8.550781 C 1.453125 8.550781 1.457031 8.550781 1.460938 8.550781 C 1.519531 8.550781 1.578125 8.542969 1.632812 8.527344 C 1.742188 8.496094 1.824219 8.433594 1.871094 8.34375 C 1.984375 8.128906 2.226562 7.851562 2.527344 7.78125 C 2.703125 7.742188 2.878906 7.78125 3.035156 7.894531 C 3.269531 8.066406 3.527344 8.472656 3.796875 8.902344 C 4.035156 9.277344 4.277344 9.667969 4.496094 9.871094 C 4.730469 10.089844 4.902344 10.359375 4.984375 10.628906 C 5.066406 10.886719 5.054688 11.117188 4.953125 11.261719 C 4.792969 11.484375 4.476562 11.785156 3.9375 11.785156 Z M 1.265625 10.894531 C 1.269531 10.894531 1.273438 10.894531 1.277344 10.894531 C 1.964844 10.976562 2.636719 11.148438 3.277344 11.40625 C 4.101562 11.738281 4.539062 11.4375 4.761719 11.125 C 4.859375 10.984375 4.800781 10.476562 4.335938 10.042969 C 4.097656 9.816406 3.84375 9.414062 3.601562 9.027344 C 3.351562 8.632812 3.097656 8.226562 2.898438 8.082031 C 2.792969 8.007812 2.691406 7.984375 2.578125 8.011719 C 2.371094 8.058594 2.171875 8.273438 2.074219 8.453125 C 1.902344 8.78125 1.523438 8.785156 1.460938 8.785156 C 1.246094 8.800781 1.09375 8.867188 1.003906 8.976562 C 0.890625 9.121094 0.921875 9.308594 0.921875 9.308594 C 0.925781 9.320312 0.925781 9.328125 0.925781 9.339844 C 0.921875 9.410156 0.929688 9.480469 0.945312 9.550781 C 0.972656 9.734375 1.015625 9.988281 0.921875 10.429688 C 0.890625 10.585938 0.902344 10.703125 0.96875 10.78125 C 1.066406 10.898438 1.261719 10.898438 1.261719 10.898438 Z M 1.265625 10.894531 "/>
<path style=" stroke:none;fill-rule:nonzero;fill:rgb(24.705882%,27.058824%,41.960784%);fill-opacity:1;" d="M 7.40625 11.292969 C 7.386719 11.292969 7.371094 11.285156 7.355469 11.277344 C 6.285156 10.75 4.976562 11.085938 4.960938 11.089844 C 4.898438 11.109375 4.835938 11.070312 4.820312 11.007812 C 4.800781 10.945312 4.839844 10.882812 4.902344 10.863281 C 4.960938 10.851562 6.308594 10.503906 7.457031 11.070312 C 7.503906 11.09375 7.53125 11.148438 7.519531 11.203125 C 7.507812 11.253906 7.460938 11.292969 7.40625 11.292969 Z M 7.40625 11.292969 "/>
<path style=" stroke:none;fill-rule:nonzero;fill:rgb(24.705882%,27.058824%,41.960784%);fill-opacity:1;" d="M 5.8125 10.484375 C 4.84375 10.484375 4.359375 10.0625 4.339844 10.042969 C 4.292969 10 4.289062 9.925781 4.332031 9.878906 C 4.375 9.832031 4.449219 9.828125 4.496094 9.871094 C 4.5 9.875 4.941406 10.25 5.8125 10.25 C 6.710938 10.25 7.40625 9.707031 7.535156 9.488281 C 7.554688 9.453125 7.59375 9.429688 7.636719 9.429688 C 7.675781 9.429688 7.714844 9.453125 7.738281 9.488281 C 7.757812 9.523438 7.757812 9.570312 7.734375 9.605469 C 7.554688 9.921875 6.757812 10.484375 5.8125 10.484375 Z M 5.8125 10.484375 "/>
<path style=" stroke:none;fill-rule:nonzero;fill:rgb(24.705882%,27.058824%,41.960784%);fill-opacity:1;" d="M 5.726562 4.332031 C 5.417969 4.332031 5.164062 4.285156 4.964844 4.1875 C 4.691406 4.050781 4.527344 3.828125 4.476562 3.519531 C 4.429688 3.335938 4.480469 2.933594 5 2.707031 C 5.628906 2.433594 6.019531 2.605469 6.367188 2.800781 C 6.542969 2.90625 6.734375 2.96875 6.933594 2.992188 C 6.960938 2.996094 6.984375 3 7.003906 3.003906 L 7.015625 3.007812 C 7.390625 3.09375 7.441406 3.308594 7.417969 3.476562 C 7.367188 3.847656 6.570312 4.292969 5.894531 4.328125 C 5.839844 4.332031 5.78125 4.332031 5.726562 4.332031 Z M 5.617188 2.800781 C 5.464844 2.800781 5.296875 2.835938 5.09375 2.921875 C 4.894531 3.011719 4.769531 3.128906 4.71875 3.273438 C 4.699219 3.335938 4.691406 3.402344 4.703125 3.464844 C 4.703125 3.46875 4.707031 3.472656 4.707031 3.476562 C 4.78125 3.929688 5.167969 4.132812 5.882812 4.09375 C 6.175781 4.078125 6.503906 3.980469 6.78125 3.820312 C 7.058594 3.664062 7.179688 3.507812 7.1875 3.441406 C 7.199219 3.351562 7.167969 3.28125 6.960938 3.234375 L 6.953125 3.234375 C 6.941406 3.230469 6.925781 3.226562 6.90625 3.226562 C 6.675781 3.199219 6.453125 3.125 6.253906 3.007812 C 6.054688 2.894531 5.859375 2.800781 5.617188 2.800781 Z M 5.617188 2.800781 "/>
<path style=" stroke:none;fill-rule:nonzero;fill:rgb(24.705882%,27.058824%,41.960784%);fill-opacity:1;" d="M 8.164062 8.277344 C 8.125 8.277344 8.085938 8.257812 8.066406 8.226562 C 8.042969 8.195312 8.039062 8.152344 8.054688 8.117188 C 8.417969 7.21875 8.007812 6.566406 7.488281 5.738281 C 7.421875 5.628906 7.347656 5.515625 7.277344 5.398438 C 6.640625 4.355469 6.910156 3.773438 6.921875 3.746094 C 6.953125 3.695312 7.019531 3.671875 7.074219 3.699219 C 7.132812 3.726562 7.15625 3.792969 7.132812 3.847656 C 7.128906 3.859375 6.917969 4.359375 7.476562 5.277344 C 7.546875 5.394531 7.617188 5.507812 7.6875 5.613281 C 8.21875 6.464844 8.679688 7.195312 8.269531 8.207031 C 8.25 8.25 8.210938 8.277344 8.164062 8.277344 Z M 8.164062 8.277344 "/>
<path style=" stroke:none;fill-rule:nonzero;fill:rgb(24.705882%,27.058824%,41.960784%);fill-opacity:1;" d="M 4.207031 9.835938 C 4.144531 9.835938 4.09375 9.789062 4.089844 9.726562 C 4.085938 9.667969 4.128906 9.613281 4.191406 9.605469 C 4.382812 9.574219 4.511719 9.464844 4.546875 9.304688 C 4.636719 8.914062 4.199219 8.460938 3.796875 8.191406 C 3.496094 7.992188 3.320312 7.71875 3.269531 7.382812 C 3.21875 7.035156 3.304688 6.628906 3.53125 6.167969 C 3.703125 5.828125 3.910156 5.503906 4.15625 5.210938 C 4.636719 4.625 4.644531 3.894531 4.644531 3.886719 C 4.644531 3.820312 4.699219 3.769531 4.761719 3.769531 C 4.828125 3.769531 4.878906 3.820312 4.878906 3.886719 C 4.878906 3.917969 4.871094 4.707031 4.335938 5.359375 C 3.875 5.921875 3.410156 6.738281 3.5 7.347656 C 3.542969 7.617188 3.679688 7.832031 3.929688 7.996094 C 4.554688 8.417969 4.875 8.925781 4.777344 9.355469 C 4.71875 9.613281 4.511719 9.792969 4.222656 9.835938 C 4.21875 9.835938 4.210938 9.835938 4.207031 9.835938 Z M 4.207031 9.835938 "/>
<path style=" stroke:none;fill-rule:nonzero;fill:rgb(24.705882%,27.058824%,41.960784%);fill-opacity:1;" d="M 6.628906 3.164062 C 6.582031 3.164062 6.539062 3.136719 6.523438 3.089844 C 6.503906 3.046875 6.515625 2.996094 6.546875 2.964844 C 6.777344 2.734375 6.804688 2.5 6.800781 2.382812 C 6.796875 2.246094 6.746094 2.125 6.671875 2.0625 C 6.59375 1.992188 6.484375 1.960938 6.378906 1.980469 C 6.273438 2 6.1875 2.078125 6.128906 2.203125 C 5.984375 2.5 6.050781 2.683594 6.050781 2.691406 C 6.078125 2.75 6.046875 2.816406 5.988281 2.84375 C 5.960938 2.855469 5.925781 2.855469 5.898438 2.84375 C 5.871094 2.828125 5.847656 2.808594 5.835938 2.777344 C 5.824219 2.75 5.726562 2.496094 5.917969 2.101562 C 6.007812 1.910156 6.15625 1.785156 6.328125 1.75 C 6.507812 1.714844 6.6875 1.765625 6.824219 1.882812 C 6.949219 1.988281 7.027344 2.171875 7.035156 2.375 C 7.046875 2.644531 6.929688 2.914062 6.714844 3.128906 C 6.691406 3.152344 6.660156 3.164062 6.628906 3.164062 Z M 6.628906 3.164062 "/>
<path style=" stroke:none;fill-rule:nonzero;fill:rgb(24.705882%,27.058824%,41.960784%);fill-opacity:1;" d="M 4.878906 3.019531 C 4.847656 3.019531 4.820312 3.011719 4.800781 2.988281 C 4.554688 2.765625 4.480469 2.398438 4.605469 2.054688 C 4.648438 1.933594 4.726562 1.828125 4.832031 1.75 C 4.949219 1.667969 5.101562 1.644531 5.238281 1.691406 C 5.425781 1.75 5.566406 1.902344 5.601562 2.09375 C 5.648438 2.308594 5.59375 2.5 5.546875 2.683594 C 5.523438 2.742188 5.464844 2.773438 5.40625 2.757812 C 5.347656 2.742188 5.308594 2.683594 5.320312 2.625 C 5.367188 2.453125 5.40625 2.304688 5.375 2.144531 C 5.355469 2.035156 5.273438 1.945312 5.167969 1.914062 C 4.984375 1.855469 4.867188 2.027344 4.828125 2.136719 C 4.734375 2.390625 4.785156 2.660156 4.957031 2.820312 C 4.996094 2.851562 5.007812 2.902344 4.988281 2.949219 C 4.972656 2.992188 4.929688 3.023438 4.878906 3.023438 Z M 4.878906 3.019531 "/>
<path style=" stroke:none;fill-rule:nonzero;fill:rgb(24.705882%,27.058824%,41.960784%);fill-opacity:1;" d="M 5.511719 3.960938 C 5.367188 3.960938 5.222656 3.941406 5.082031 3.902344 C 4.707031 3.796875 4.511719 3.582031 4.503906 3.574219 C 4.460938 3.523438 4.464844 3.449219 4.511719 3.40625 C 4.558594 3.363281 4.632812 3.367188 4.675781 3.414062 C 4.703125 3.445312 5.34375 4.117188 6.59375 3.390625 C 6.628906 3.367188 6.675781 3.367188 6.714844 3.386719 C 6.753906 3.40625 6.777344 3.449219 6.777344 3.492188 C 6.773438 3.535156 6.75 3.574219 6.710938 3.59375 C 6.402344 3.777344 5.96875 3.960938 5.511719 3.960938 Z M 5.511719 3.960938 "/>
<path style=" stroke:none;fill-rule:nonzero;fill:rgb(24.705882%,27.058824%,41.960784%);fill-opacity:1;" d="M 5.097656 2.578125 L 5.074219 2.578125 C 5.007812 2.578125 4.957031 2.527344 4.957031 2.460938 C 4.957031 2.394531 5.007812 2.34375 5.074219 2.34375 L 5.097656 2.34375 C 5.164062 2.34375 5.214844 2.394531 5.214844 2.460938 C 5.214844 2.527344 5.164062 2.578125 5.097656 2.578125 Z M 5.097656 2.578125 "/>
<path style=" stroke:none;fill-rule:nonzero;fill:rgb(24.705882%,27.058824%,41.960784%);fill-opacity:1;" d="M 6.378906 2.671875 L 6.351562 2.671875 C 6.285156 2.671875 6.234375 2.621094 6.234375 2.554688 C 6.234375 2.488281 6.285156 2.4375 6.351562 2.4375 L 6.375 2.4375 C 6.441406 2.4375 6.492188 2.488281 6.492188 2.554688 C 6.492188 2.621094 6.441406 2.671875 6.375 2.671875 Z M 6.378906 2.671875 "/>
</g>
</svg>
