<?xml version="1.0" encoding="UTF-8"?>
<svg xmlns="http://www.w3.org/2000/svg" xmlns:xlink="http://www.w3.org/1999/xlink" width="12pt" height="12pt" viewBox="0 0 12 12" version="1.1">
<defs>
<filter id="alpha" filterUnits="objectBoundingBox" x="0%" y="0%" width="100%" height="100%">
  <feColorMatrix type="matrix" in="SourceGraphic" values="0 0 0 0 1 0 0 0 0 1 0 0 0 0 1 0 0 0 1 0"/>
</filter>
<mask id="mask0">
  <g filter="url(#alpha)">
<rect x="0" y="0" width="12" height="12" style="fill:rgb(0%,0%,0%);fill-opacity:0.14902;stroke:none;"/>
  </g>
</mask>
<clipPath id="clip1">
  <rect x="0" y="0" width="12" height="12"/>
</clipPath>
<g id="surface5" clip-path="url(#clip1)">
<path style=" stroke:none;fill-rule:nonzero;fill:rgb(24.705882%,27.058824%,41.960784%);fill-opacity:1;" d="M 11.414062 10.5 L 0.5625 10.5 L 0.398438 10.40625 L 0.375 10.148438 L 11.648438 10.148438 L 11.601562 10.40625 Z M 11.414062 10.5 "/>
</g>
<mask id="mask1">
  <g filter="url(#alpha)">
<rect x="0" y="0" width="12" height="12" style="fill:rgb(0%,0%,0%);fill-opacity:0.2;stroke:none;"/>
  </g>
</mask>
<clipPath id="clip2">
  <rect x="0" y="0" width="12" height="12"/>
</clipPath>
<g id="surface8" clip-path="url(#clip2)">
<path style=" stroke:none;fill-rule:nonzero;fill:rgb(100%,100%,100%);fill-opacity:1;" d="M 6.746094 1.453125 L 0.609375 1.453125 L 0.421875 1.546875 L 0.375 1.804688 L 6.519531 1.804688 C 6.574219 1.675781 6.648438 1.554688 6.746094 1.453125 Z M 6.746094 1.453125 "/>
</g>
<mask id="mask2">
  <g filter="url(#alpha)">
<rect x="0" y="0" width="12" height="12" style="fill:rgb(0%,0%,0%);fill-opacity:0.701961;stroke:none;"/>
  </g>
</mask>
<clipPath id="clip3">
  <rect x="0" y="0" width="12" height="12"/>
</clipPath>
<g id="surface11" clip-path="url(#clip3)">
<path style=" stroke:none;fill-rule:nonzero;fill:rgb(100%,100%,100%);fill-opacity:1;" d="M 11.625 1.546875 L 11.460938 1.453125 L 6.746094 1.453125 C 6.648438 1.554688 6.574219 1.675781 6.519531 1.804688 L 11.648438 1.804688 Z M 11.625 1.546875 "/>
</g>
</defs>
<g id="surface1">
<path style=" stroke:none;fill-rule:nonzero;fill:rgb(96.078431%,96.470588%,96.862745%);fill-opacity:1;" d="M 11.625 1.710938 L 11.625 10.265625 C 11.625 10.394531 11.519531 10.5 11.390625 10.5 L 7.03125 10.5 C 6.515625 8.554688 7.03125 6.257812 7.03125 6.257812 L 5.0625 6.257812 C 5.296875 3.398438 6.804688 1.476562 6.804688 1.476562 L 11.390625 1.476562 C 11.519531 1.476562 11.625 1.582031 11.625 1.710938 Z M 11.625 1.710938 "/>
<path style=" stroke:none;fill-rule:nonzero;fill:rgb(54.509804%,81.568627%,96.862745%);fill-opacity:1;" d="M 5.0625 6.257812 L 7.03125 6.257812 C 7.03125 6.257812 6.515625 8.554688 7.03125 10.5 L 0.609375 10.5 C 0.480469 10.5 0.375 10.394531 0.375 10.265625 L 0.375 1.710938 C 0.375 1.582031 0.480469 1.476562 0.609375 1.476562 L 6.804688 1.476562 C 6.804688 1.476562 5.296875 3.398438 5.0625 6.257812 Z M 5.0625 6.257812 "/>
<use xlink:href="#surface5" mask="url(#mask0)"/>
<use xlink:href="#surface8" mask="url(#mask1)"/>
<use xlink:href="#surface11" mask="url(#mask2)"/>
<path style=" stroke:none;fill-rule:nonzero;fill:rgb(24.705882%,27.058824%,41.960784%);fill-opacity:1;" d="M 11.390625 10.617188 L 0.609375 10.617188 C 0.414062 10.617188 0.257812 10.460938 0.257812 10.265625 L 0.257812 1.710938 C 0.257812 1.515625 0.414062 1.359375 0.609375 1.359375 L 11.390625 1.359375 C 11.585938 1.359375 11.742188 1.515625 11.742188 1.710938 L 11.742188 10.265625 C 11.742188 10.460938 11.585938 10.617188 11.390625 10.617188 Z M 0.609375 1.59375 C 0.542969 1.59375 0.492188 1.644531 0.492188 1.710938 L 0.492188 10.265625 C 0.492188 10.332031 0.542969 10.382812 0.609375 10.382812 L 11.390625 10.382812 C 11.457031 10.382812 11.507812 10.332031 11.507812 10.265625 L 11.507812 1.710938 C 11.507812 1.644531 11.457031 1.59375 11.390625 1.59375 Z M 0.609375 1.59375 "/>
<path style=" stroke:none;fill-rule:nonzero;fill:rgb(24.705882%,27.058824%,41.960784%);fill-opacity:1;" d="M 7.523438 11.742188 C 7.480469 11.742188 7.441406 11.71875 7.421875 11.683594 C 6.730469 10.460938 6.628906 9.042969 6.667969 8.066406 C 6.6875 7.496094 6.761719 6.929688 6.882812 6.375 L 5.0625 6.375 C 5.027344 6.375 4.996094 6.359375 4.976562 6.335938 C 4.953125 6.3125 4.941406 6.277344 4.945312 6.246094 C 5.152344 4.375 5.816406 2.851562 6.339844 1.902344 C 6.902344 0.875 7.414062 0.296875 7.433594 0.273438 C 7.476562 0.226562 7.550781 0.222656 7.601562 0.265625 C 7.648438 0.308594 7.652344 0.382812 7.609375 0.429688 C 7.605469 0.433594 7.09375 1.015625 6.539062 2.023438 C 6.042969 2.929688 5.414062 4.371094 5.195312 6.140625 L 7.03125 6.140625 C 7.066406 6.140625 7.101562 6.15625 7.125 6.1875 C 7.144531 6.214844 7.152344 6.253906 7.144531 6.289062 C 7.140625 6.296875 6.941406 7.054688 6.902344 8.082031 C 6.867188 9.023438 6.960938 10.394531 7.625 11.566406 C 7.644531 11.605469 7.644531 11.648438 7.625 11.683594 C 7.605469 11.71875 7.566406 11.742188 7.523438 11.742188 Z M 7.523438 11.742188 "/>
<path style=" stroke:none;fill-rule:nonzero;fill:rgb(24.705882%,27.058824%,41.960784%);fill-opacity:1;" d="M 6.070312 8.625 C 3.859375 8.625 2.324219 7.734375 2.261719 7.695312 C 2.207031 7.660156 2.191406 7.589844 2.222656 7.535156 C 2.253906 7.480469 2.324219 7.460938 2.378906 7.492188 C 2.394531 7.5 3.925781 8.390625 6.070312 8.390625 C 8.21875 8.390625 9.816406 7.5 9.832031 7.492188 C 9.871094 7.46875 9.914062 7.46875 9.953125 7.492188 C 9.988281 7.511719 10.011719 7.550781 10.011719 7.59375 C 10.011719 7.636719 9.984375 7.675781 9.949219 7.695312 C 9.882812 7.734375 8.277344 8.625 6.070312 8.625 Z M 6.070312 8.625 "/>
<path style=" stroke:none;fill-rule:nonzero;fill:rgb(24.705882%,27.058824%,41.960784%);fill-opacity:1;" d="M 3.304688 4.359375 C 3.238281 4.359375 3.1875 4.308594 3.1875 4.242188 L 3.1875 3.210938 C 3.1875 3.144531 3.238281 3.09375 3.304688 3.09375 C 3.371094 3.09375 3.421875 3.144531 3.421875 3.210938 L 3.421875 4.242188 C 3.421875 4.308594 3.371094 4.359375 3.304688 4.359375 Z M 3.304688 4.359375 "/>
<path style=" stroke:none;fill-rule:nonzero;fill:rgb(24.705882%,27.058824%,41.960784%);fill-opacity:1;" d="M 8.320312 4.359375 C 8.253906 4.359375 8.203125 4.308594 8.203125 4.242188 L 8.203125 3.210938 C 8.203125 3.144531 8.253906 3.09375 8.320312 3.09375 C 8.386719 3.09375 8.4375 3.144531 8.4375 3.210938 L 8.4375 4.242188 C 8.4375 4.308594 8.386719 4.359375 8.320312 4.359375 Z M 8.320312 4.359375 "/>
</g>
</svg>
