<?xml version="1.0" encoding="UTF-8"?>
<svg xmlns="http://www.w3.org/2000/svg" xmlns:xlink="http://www.w3.org/1999/xlink" width="12pt" height="12pt" viewBox="0 0 12 12" version="1.1">
<g id="surface1">
<path style=" stroke:none;fill-rule:nonzero;fill:rgb(14.901961%,19.607843%,21.960784%);fill-opacity:1;" d="M 6.1875 3.4375 C 5.160156 3.4375 4.136719 3.316406 3.140625 3.085938 C 3.039062 3.0625 2.976562 2.960938 3 2.859375 C 3.023438 2.757812 3.121094 2.695312 3.226562 2.71875 C 5.398438 3.226562 7.707031 3.164062 9.855469 2.53125 C 9.957031 2.503906 10.058594 2.558594 10.089844 2.660156 C 10.117188 2.757812 10.0625 2.863281 9.960938 2.890625 C 8.734375 3.253906 7.464844 3.4375 6.1875 3.4375 Z M 6.1875 3.4375 "/>
<path style=" stroke:none;fill-rule:nonzero;fill:rgb(14.901961%,19.607843%,21.960784%);fill-opacity:1;" d="M 9.910156 9.886719 C 9.890625 9.886719 9.875 9.882812 9.855469 9.878906 C 7.472656 9.175781 4.902344 9.175781 2.519531 9.878906 C 2.417969 9.90625 2.316406 9.851562 2.285156 9.75 C 2.257812 9.652344 2.3125 9.546875 2.414062 9.519531 C 4.867188 8.796875 7.507812 8.796875 9.960938 9.519531 C 10.0625 9.546875 10.117188 9.652344 10.089844 9.75 C 10.066406 9.832031 9.988281 9.886719 9.910156 9.886719 Z M 9.910156 9.886719 "/>
<path style=" stroke:none;fill-rule:nonzero;fill:rgb(14.901961%,19.607843%,21.960784%);fill-opacity:1;" d="M 5.957031 11.488281 C 5.921875 11.488281 5.886719 11.480469 5.851562 11.457031 C 4.101562 10.261719 3.058594 8.296875 3.058594 6.203125 C 3.058594 4.507812 3.726562 2.90625 4.9375 1.703125 C 5.011719 1.628906 5.132812 1.632812 5.203125 1.707031 C 5.277344 1.777344 5.277344 1.898438 5.203125 1.96875 C 4.0625 3.101562 3.433594 4.605469 3.433594 6.203125 C 3.433594 8.175781 4.414062 10.023438 6.0625 11.148438 C 6.148438 11.207031 6.171875 11.324219 6.113281 11.40625 C 6.078125 11.460938 6.019531 11.488281 5.957031 11.488281 Z M 5.957031 11.488281 "/>
<path style=" stroke:none;fill-rule:nonzero;fill:rgb(14.901961%,19.607843%,21.960784%);fill-opacity:1;" d="M 6.433594 11.488281 C 6.371094 11.488281 6.3125 11.460938 6.277344 11.40625 C 6.21875 11.320312 6.242188 11.207031 6.328125 11.148438 C 7.976562 10.023438 8.957031 8.175781 8.957031 6.203125 C 8.957031 4.234375 7.976562 2.382812 6.328125 1.261719 C 6.242188 1.203125 6.21875 1.085938 6.277344 1 C 6.335938 0.914062 6.453125 0.894531 6.539062 0.949219 C 8.289062 2.144531 9.332031 4.109375 9.332031 6.203125 C 9.332031 8.296875 8.289062 10.261719 6.539062 11.457031 C 6.507812 11.480469 6.46875 11.488281 6.433594 11.488281 Z M 6.433594 11.488281 "/>
<path style=" stroke:none;fill-rule:nonzero;fill:rgb(14.901961%,19.607843%,21.960784%);fill-opacity:1;" d="M 6.1875 11.433594 C 6.082031 11.433594 6 11.351562 6 11.246094 L 6 1.160156 C 6 1.058594 6.082031 0.972656 6.1875 0.972656 C 6.289062 0.972656 6.375 1.058594 6.375 1.160156 L 6.375 11.246094 C 6.375 11.351562 6.289062 11.433594 6.1875 11.433594 Z M 6.1875 11.433594 "/>
<path style=" stroke:none;fill-rule:nonzero;fill:rgb(14.901961%,19.607843%,21.960784%);fill-opacity:1;" d="M 11.417969 6.390625 L 1.707031 6.390625 C 1.601562 6.390625 1.519531 6.308594 1.519531 6.203125 C 1.519531 6.101562 1.601562 6.015625 1.707031 6.015625 L 11.417969 6.015625 C 11.519531 6.015625 11.605469 6.101562 11.605469 6.203125 C 11.605469 6.308594 11.519531 6.390625 11.417969 6.390625 Z M 11.417969 6.390625 "/>
<path style=" stroke:none;fill-rule:nonzero;fill:rgb(14.901961%,19.607843%,21.960784%);fill-opacity:1;" d="M 6.1875 11.640625 C 3.1875 11.640625 0.75 9.203125 0.75 6.203125 C 0.75 4.882812 1.230469 3.609375 2.101562 2.617188 C 2.167969 2.539062 2.285156 2.53125 2.363281 2.597656 C 2.441406 2.667969 2.449219 2.785156 2.382812 2.863281 C 1.570312 3.789062 1.125 4.972656 1.125 6.203125 C 1.125 8.996094 3.394531 11.265625 6.1875 11.265625 C 8.980469 11.265625 11.25 8.996094 11.25 6.203125 C 11.25 3.414062 8.980469 1.140625 6.1875 1.140625 C 5.03125 1.140625 3.945312 1.519531 3.046875 2.234375 C 2.964844 2.296875 2.847656 2.285156 2.78125 2.203125 C 2.71875 2.121094 2.730469 2.003906 2.8125 1.941406 C 3.78125 1.171875 4.945312 0.765625 6.1875 0.765625 C 9.183594 0.765625 11.625 3.207031 11.625 6.203125 C 11.625 9.203125 9.183594 11.640625 6.1875 11.640625 Z M 6.1875 11.640625 "/>
</g>
</svg>
