<?xml version="1.0" encoding="UTF-8"?>
<svg xmlns="http://www.w3.org/2000/svg" xmlns:xlink="http://www.w3.org/1999/xlink" width="12pt" height="12pt" viewBox="0 0 12 12" version="1.1">
<defs>
<filter id="alpha" filterUnits="objectBoundingBox" x="0%" y="0%" width="100%" height="100%">
  <feColorMatrix type="matrix" in="SourceGraphic" values="0 0 0 0 1 0 0 0 0 1 0 0 0 0 1 0 0 0 1 0"/>
</filter>
<mask id="mask0">
  <g filter="url(#alpha)">
<rect x="0" y="0" width="12" height="12" style="fill:rgb(0%,0%,0%);fill-opacity:0.14902;stroke:none;"/>
  </g>
</mask>
<clipPath id="clip1">
  <rect x="0" y="0" width="12" height="12"/>
</clipPath>
<g id="surface5" clip-path="url(#clip1)">
<path style=" stroke:none;fill-rule:nonzero;fill:rgb(24.705882%,27.058824%,41.960784%);fill-opacity:1;" d="M 4.570312 5.648438 L 4.570312 1.429688 L 4.945312 1.359375 L 4.945312 5.648438 Z M 4.570312 5.648438 "/>
</g>
<mask id="mask1">
  <g filter="url(#alpha)">
<rect x="0" y="0" width="12" height="12" style="fill:rgb(0%,0%,0%);fill-opacity:0.14902;stroke:none;"/>
  </g>
</mask>
<clipPath id="clip2">
  <rect x="0" y="0" width="12" height="12"/>
</clipPath>
<g id="surface8" clip-path="url(#clip2)">
<path style=" stroke:none;fill-rule:nonzero;fill:rgb(24.705882%,27.058824%,41.960784%);fill-opacity:1;" d="M 11.273438 5.648438 L 11.273438 0.4375 L 11.648438 0.351562 L 11.648438 5.648438 Z M 11.273438 5.648438 "/>
</g>
<mask id="mask2">
  <g filter="url(#alpha)">
<rect x="0" y="0" width="12" height="12" style="fill:rgb(0%,0%,0%);fill-opacity:0.14902;stroke:none;"/>
  </g>
</mask>
<clipPath id="clip3">
  <rect x="0" y="0" width="12" height="12"/>
</clipPath>
<g id="surface11" clip-path="url(#clip3)">
<path style=" stroke:none;fill-rule:nonzero;fill:rgb(100%,100%,100%);fill-opacity:1;" d="M 0.375 5.648438 L 0.375 2.027344 L 0.75 1.96875 L 0.75 5.648438 Z M 0.375 5.648438 "/>
</g>
<mask id="mask3">
  <g filter="url(#alpha)">
<rect x="0" y="0" width="12" height="12" style="fill:rgb(0%,0%,0%);fill-opacity:0.14902;stroke:none;"/>
  </g>
</mask>
<clipPath id="clip4">
  <rect x="0" y="0" width="12" height="12"/>
</clipPath>
<g id="surface14" clip-path="url(#clip4)">
<path style=" stroke:none;fill-rule:nonzero;fill:rgb(100%,100%,100%);fill-opacity:1;" d="M 5.648438 5.648438 L 5.648438 1.292969 L 6.023438 1.21875 L 6.023438 5.648438 Z M 5.648438 5.648438 "/>
</g>
<mask id="mask4">
  <g filter="url(#alpha)">
<rect x="0" y="0" width="12" height="12" style="fill:rgb(0%,0%,0%);fill-opacity:0.14902;stroke:none;"/>
  </g>
</mask>
<clipPath id="clip5">
  <rect x="0" y="0" width="12" height="12"/>
</clipPath>
<g id="surface17" clip-path="url(#clip5)">
<path style=" stroke:none;fill-rule:nonzero;fill:rgb(100%,100%,100%);fill-opacity:1;" d="M 0.378906 2.035156 L 4.9375 1.371094 L 4.945312 1.757812 L 0.375 2.414062 Z M 0.378906 2.035156 "/>
</g>
<mask id="mask5">
  <g filter="url(#alpha)">
<rect x="0" y="0" width="12" height="12" style="fill:rgb(0%,0%,0%);fill-opacity:0.14902;stroke:none;"/>
  </g>
</mask>
<clipPath id="clip6">
  <rect x="0" y="0" width="12" height="12"/>
</clipPath>
<g id="surface20" clip-path="url(#clip6)">
<path style=" stroke:none;fill-rule:nonzero;fill:rgb(100%,100%,100%);fill-opacity:1;" d="M 5.667969 1.261719 L 11.609375 0.394531 L 11.601562 0.78125 L 5.648438 1.640625 Z M 5.667969 1.261719 "/>
</g>
<mask id="mask6">
  <g filter="url(#alpha)">
<rect x="0" y="0" width="12" height="12" style="fill:rgb(0%,0%,0%);fill-opacity:0.14902;stroke:none;"/>
  </g>
</mask>
<clipPath id="clip7">
  <rect x="0" y="0" width="12" height="12"/>
</clipPath>
<g id="surface23" clip-path="url(#clip7)">
<path style=" stroke:none;fill-rule:nonzero;fill:rgb(24.705882%,27.058824%,41.960784%);fill-opacity:1;" d="M 0.375 5.273438 L 4.945312 5.273438 L 4.945312 5.648438 L 0.375 5.648438 Z M 0.375 5.273438 "/>
</g>
<mask id="mask7">
  <g filter="url(#alpha)">
<rect x="0" y="0" width="12" height="12" style="fill:rgb(0%,0%,0%);fill-opacity:0.14902;stroke:none;"/>
  </g>
</mask>
<clipPath id="clip8">
  <rect x="0" y="0" width="12" height="12"/>
</clipPath>
<g id="surface26" clip-path="url(#clip8)">
<path style=" stroke:none;fill-rule:nonzero;fill:rgb(24.705882%,27.058824%,41.960784%);fill-opacity:1;" d="M 5.648438 5.273438 L 11.625 5.273438 L 11.625 5.648438 L 5.648438 5.648438 Z M 5.648438 5.273438 "/>
</g>
<mask id="mask8">
  <g filter="url(#alpha)">
<rect x="0" y="0" width="12" height="12" style="fill:rgb(0%,0%,0%);fill-opacity:0.14902;stroke:none;"/>
  </g>
</mask>
<clipPath id="clip9">
  <rect x="0" y="0" width="12" height="12"/>
</clipPath>
<g id="surface29" clip-path="url(#clip9)">
<path style=" stroke:none;fill-rule:nonzero;fill:rgb(24.705882%,27.058824%,41.960784%);fill-opacity:1;" d="M 4.570312 6.351562 L 4.570312 10.570312 L 4.945312 10.640625 L 4.945312 6.351562 Z M 4.570312 6.351562 "/>
</g>
<mask id="mask9">
  <g filter="url(#alpha)">
<rect x="0" y="0" width="12" height="12" style="fill:rgb(0%,0%,0%);fill-opacity:0.14902;stroke:none;"/>
  </g>
</mask>
<clipPath id="clip10">
  <rect x="0" y="0" width="12" height="12"/>
</clipPath>
<g id="surface32" clip-path="url(#clip10)">
<path style=" stroke:none;fill-rule:nonzero;fill:rgb(24.705882%,27.058824%,41.960784%);fill-opacity:1;" d="M 11.273438 6.351562 L 11.273438 11.5625 L 11.648438 11.648438 L 11.648438 6.351562 Z M 11.273438 6.351562 "/>
</g>
<mask id="mask10">
  <g filter="url(#alpha)">
<rect x="0" y="0" width="12" height="12" style="fill:rgb(0%,0%,0%);fill-opacity:0.14902;stroke:none;"/>
  </g>
</mask>
<clipPath id="clip11">
  <rect x="0" y="0" width="12" height="12"/>
</clipPath>
<g id="surface35" clip-path="url(#clip11)">
<path style=" stroke:none;fill-rule:nonzero;fill:rgb(100%,100%,100%);fill-opacity:1;" d="M 0.375 6.351562 L 0.375 9.972656 L 0.75 10.03125 L 0.75 6.351562 Z M 0.375 6.351562 "/>
</g>
<mask id="mask11">
  <g filter="url(#alpha)">
<rect x="0" y="0" width="12" height="12" style="fill:rgb(0%,0%,0%);fill-opacity:0.14902;stroke:none;"/>
  </g>
</mask>
<clipPath id="clip12">
  <rect x="0" y="0" width="12" height="12"/>
</clipPath>
<g id="surface38" clip-path="url(#clip12)">
<path style=" stroke:none;fill-rule:nonzero;fill:rgb(100%,100%,100%);fill-opacity:1;" d="M 5.648438 6.351562 L 5.648438 10.707031 L 6.023438 10.78125 L 6.023438 6.351562 Z M 5.648438 6.351562 "/>
</g>
<mask id="mask12">
  <g filter="url(#alpha)">
<rect x="0" y="0" width="12" height="12" style="fill:rgb(0%,0%,0%);fill-opacity:0.14902;stroke:none;"/>
  </g>
</mask>
<clipPath id="clip13">
  <rect x="0" y="0" width="12" height="12"/>
</clipPath>
<g id="surface41" clip-path="url(#clip13)">
<path style=" stroke:none;fill-rule:nonzero;fill:rgb(24.705882%,27.058824%,41.960784%);fill-opacity:1;" d="M 0.378906 9.964844 L 4.9375 10.628906 L 4.945312 10.242188 L 0.375 9.585938 Z M 0.378906 9.964844 "/>
</g>
<mask id="mask13">
  <g filter="url(#alpha)">
<rect x="0" y="0" width="12" height="12" style="fill:rgb(0%,0%,0%);fill-opacity:0.14902;stroke:none;"/>
  </g>
</mask>
<clipPath id="clip14">
  <rect x="0" y="0" width="12" height="12"/>
</clipPath>
<g id="surface44" clip-path="url(#clip14)">
<path style=" stroke:none;fill-rule:nonzero;fill:rgb(24.705882%,27.058824%,41.960784%);fill-opacity:1;" d="M 5.667969 10.738281 L 11.609375 11.605469 L 11.601562 11.21875 L 5.648438 10.359375 Z M 5.667969 10.738281 "/>
</g>
<mask id="mask14">
  <g filter="url(#alpha)">
<rect x="0" y="0" width="12" height="12" style="fill:rgb(0%,0%,0%);fill-opacity:0.14902;stroke:none;"/>
  </g>
</mask>
<clipPath id="clip15">
  <rect x="0" y="0" width="12" height="12"/>
</clipPath>
<g id="surface47" clip-path="url(#clip15)">
<path style=" stroke:none;fill-rule:nonzero;fill:rgb(100%,100%,100%);fill-opacity:1;" d="M 0.375 6.351562 L 4.945312 6.351562 L 4.945312 6.726562 L 0.375 6.726562 Z M 0.375 6.351562 "/>
</g>
<mask id="mask15">
  <g filter="url(#alpha)">
<rect x="0" y="0" width="12" height="12" style="fill:rgb(0%,0%,0%);fill-opacity:0.14902;stroke:none;"/>
  </g>
</mask>
<clipPath id="clip16">
  <rect x="0" y="0" width="12" height="12"/>
</clipPath>
<g id="surface50" clip-path="url(#clip16)">
<path style=" stroke:none;fill-rule:nonzero;fill:rgb(100%,100%,100%);fill-opacity:1;" d="M 5.648438 6.351562 L 11.625 6.351562 L 11.625 6.726562 L 5.648438 6.726562 Z M 5.648438 6.351562 "/>
</g>
</defs>
<g id="surface1">
<path style=" stroke:none;fill-rule:nonzero;fill:rgb(54.509804%,81.568627%,96.862745%);fill-opacity:1;" d="M 11.625 5.648438 C 9.675781 5.648438 7.722656 5.648438 5.773438 5.652344 C 5.675781 5.652344 5.644531 5.632812 5.644531 5.527344 C 5.648438 4.140625 5.648438 2.753906 5.644531 1.367188 C 5.644531 1.265625 5.683594 1.246094 5.765625 1.234375 C 7.007812 1.054688 8.246094 0.871094 9.484375 0.6875 C 10.144531 0.589844 11.4375 0.398438 11.515625 0.375 C 11.601562 0.351562 11.628906 0.390625 11.628906 0.484375 C 11.625 2.207031 11.625 3.925781 11.625 5.648438 Z M 11.625 5.648438 "/>
<path style=" stroke:none;fill-rule:nonzero;fill:rgb(54.509804%,81.568627%,96.862745%);fill-opacity:1;" d="M 11.492188 11.625 C 11.320312 11.578125 11.1875 11.5625 11.035156 11.539062 C 10.207031 11.414062 9.375 11.292969 8.542969 11.167969 C 7.773438 11.054688 7 10.945312 6.222656 10.832031 C 6.070312 10.808594 5.914062 10.785156 5.757812 10.765625 C 5.675781 10.753906 5.644531 10.726562 5.644531 10.636719 C 5.648438 9.707031 5.648438 8.777344 5.648438 7.847656 C 5.648438 7.386719 5.652344 6.925781 5.644531 6.464844 C 5.644531 6.371094 5.671875 6.351562 5.761719 6.351562 C 7.714844 6.351562 9.671875 6.351562 11.625 6.351562 C 11.625 8.066406 11.625 9.78125 11.628906 11.492188 C 11.628906 11.605469 11.605469 11.648438 11.492188 11.625 Z M 11.492188 11.625 "/>
<path style=" stroke:none;fill-rule:nonzero;fill:rgb(54.509804%,81.568627%,96.862745%);fill-opacity:1;" d="M 0.375 2.023438 C 0.761719 1.96875 1.148438 1.914062 1.535156 1.859375 C 2.261719 1.753906 2.984375 1.644531 3.707031 1.539062 C 4.085938 1.484375 4.464844 1.429688 4.84375 1.371094 C 4.917969 1.359375 4.945312 1.367188 4.945312 1.453125 C 4.945312 2.820312 4.945312 4.191406 4.945312 5.558594 C 4.945312 5.660156 4.898438 5.648438 4.832031 5.648438 C 3.347656 5.648438 1.859375 5.648438 0.375 5.648438 Z M 0.375 2.023438 "/>
<path style=" stroke:none;fill-rule:nonzero;fill:rgb(54.509804%,81.568627%,96.862745%);fill-opacity:1;" d="M 0.375 6.351562 C 1.859375 6.351562 3.339844 6.351562 4.824219 6.347656 C 4.921875 6.347656 4.949219 6.375 4.949219 6.472656 C 4.945312 7.816406 4.945312 9.160156 4.945312 10.503906 C 4.945312 10.644531 4.945312 10.640625 4.8125 10.621094 C 3.988281 10.5 3.164062 10.382812 2.339844 10.261719 C 1.71875 10.171875 1.09375 10.078125 0.472656 9.984375 C 0.441406 9.980469 0.40625 9.980469 0.375 9.976562 Z M 0.375 6.351562 "/>
<use xlink:href="#surface5" mask="url(#mask0)"/>
<use xlink:href="#surface8" mask="url(#mask1)"/>
<use xlink:href="#surface11" mask="url(#mask2)"/>
<use xlink:href="#surface14" mask="url(#mask3)"/>
<use xlink:href="#surface17" mask="url(#mask4)"/>
<use xlink:href="#surface20" mask="url(#mask5)"/>
<use xlink:href="#surface23" mask="url(#mask6)"/>
<use xlink:href="#surface26" mask="url(#mask7)"/>
<use xlink:href="#surface29" mask="url(#mask8)"/>
<use xlink:href="#surface32" mask="url(#mask9)"/>
<use xlink:href="#surface35" mask="url(#mask10)"/>
<use xlink:href="#surface38" mask="url(#mask11)"/>
<use xlink:href="#surface41" mask="url(#mask12)"/>
<use xlink:href="#surface44" mask="url(#mask13)"/>
<use xlink:href="#surface47" mask="url(#mask14)"/>
<use xlink:href="#surface50" mask="url(#mask15)"/>
<path style=" stroke:none;fill-rule:nonzero;fill:rgb(24.705882%,27.058824%,41.960784%);fill-opacity:1;" d="M 5.773438 5.769531 C 5.707031 5.769531 5.640625 5.761719 5.589844 5.707031 C 5.535156 5.65625 5.527344 5.585938 5.527344 5.527344 C 5.53125 4.066406 5.53125 2.703125 5.527344 1.367188 C 5.527344 1.171875 5.652344 1.132812 5.75 1.117188 C 6.652344 0.984375 7.554688 0.855469 8.457031 0.71875 L 9.46875 0.570312 C 10.605469 0.40625 11.414062 0.28125 11.484375 0.261719 C 11.558594 0.242188 11.621094 0.25 11.667969 0.289062 C 11.738281 0.339844 11.746094 0.425781 11.746094 0.484375 C 11.742188 1.90625 11.742188 3.347656 11.742188 4.746094 L 11.742188 5.648438 C 11.742188 5.714844 11.691406 5.765625 11.625 5.765625 L 10.644531 5.765625 C 9.046875 5.765625 7.398438 5.765625 5.773438 5.769531 Z M 5.761719 5.535156 L 5.773438 5.535156 C 7.398438 5.53125 9.046875 5.53125 10.644531 5.53125 L 11.507812 5.53125 L 11.507812 4.746094 C 11.507812 3.351562 11.507812 1.914062 11.511719 0.496094 C 11.277344 0.539062 10.175781 0.703125 9.503906 0.804688 L 8.492188 0.953125 C 7.585938 1.085938 6.683594 1.21875 5.78125 1.351562 L 5.761719 1.355469 C 5.761719 1.359375 5.761719 1.363281 5.761719 1.367188 C 5.765625 2.703125 5.765625 4.066406 5.761719 5.527344 Z M 5.761719 5.535156 "/>
<path style=" stroke:none;fill-rule:nonzero;fill:rgb(24.705882%,27.058824%,41.960784%);fill-opacity:1;" d="M 11.542969 11.75 C 11.519531 11.75 11.492188 11.746094 11.46875 11.738281 L 11.460938 11.738281 C 11.339844 11.707031 11.21875 11.683594 11.09375 11.667969 L 11.019531 11.65625 C 10.253906 11.539062 9.476562 11.425781 8.722656 11.316406 L 8.527344 11.285156 C 8.003906 11.210938 7.480469 11.132812 6.953125 11.058594 L 6.210938 10.949219 C 6.160156 10.941406 6.113281 10.933594 6.0625 10.925781 C 5.960938 10.910156 5.851562 10.894531 5.746094 10.882812 C 5.601562 10.863281 5.527344 10.78125 5.53125 10.636719 C 5.53125 9.910156 5.53125 9.171875 5.53125 8.457031 C 5.53125 8.253906 5.53125 8.050781 5.53125 7.847656 C 5.53125 7.726562 5.53125 7.605469 5.53125 7.488281 C 5.53125 7.152344 5.53125 6.804688 5.53125 6.464844 C 5.53125 6.410156 5.535156 6.34375 5.585938 6.292969 C 5.636719 6.238281 5.703125 6.234375 5.761719 6.234375 C 7.398438 6.234375 9.066406 6.234375 10.675781 6.234375 L 11.625 6.234375 C 11.691406 6.234375 11.742188 6.289062 11.742188 6.351562 L 11.742188 7.328125 C 11.742188 8.695312 11.742188 10.105469 11.746094 11.492188 C 11.746094 11.542969 11.746094 11.648438 11.671875 11.710938 C 11.632812 11.738281 11.589844 11.75 11.542969 11.75 Z M 5.761719 10.648438 L 5.773438 10.648438 C 5.882812 10.664062 5.992188 10.679688 6.097656 10.695312 L 6.242188 10.71875 L 6.988281 10.824219 C 7.511719 10.902344 8.035156 10.976562 8.5625 11.054688 L 8.753906 11.082031 C 9.507812 11.195312 10.289062 11.308594 11.054688 11.425781 L 11.128906 11.4375 C 11.257812 11.453125 11.386719 11.476562 11.511719 11.507812 C 11.511719 11.503906 11.511719 11.5 11.511719 11.492188 C 11.507812 10.105469 11.507812 8.691406 11.507812 7.328125 L 11.507812 6.46875 L 10.675781 6.46875 C 9.0625 6.46875 7.398438 6.46875 5.761719 6.46875 C 5.765625 6.808594 5.765625 7.152344 5.765625 7.484375 C 5.765625 7.605469 5.765625 7.726562 5.765625 7.847656 C 5.765625 8.050781 5.765625 8.253906 5.765625 8.457031 C 5.765625 9.171875 5.765625 9.910156 5.761719 10.636719 C 5.761719 10.640625 5.761719 10.644531 5.761719 10.648438 Z M 5.761719 10.648438 "/>
<path style=" stroke:none;fill-rule:nonzero;fill:rgb(24.705882%,27.058824%,41.960784%);fill-opacity:1;" d="M 4.863281 5.765625 L 4.832031 5.765625 C 3.582031 5.765625 2.332031 5.765625 1.082031 5.765625 L 0.375 5.765625 C 0.308594 5.765625 0.257812 5.714844 0.257812 5.648438 L 0.257812 2.023438 C 0.257812 1.964844 0.300781 1.914062 0.359375 1.90625 L 0.71875 1.855469 C 0.980469 1.820312 1.253906 1.78125 1.519531 1.742188 C 2.070312 1.660156 2.621094 1.582031 3.171875 1.5 L 3.6875 1.425781 L 3.957031 1.386719 C 4.242188 1.34375 4.539062 1.300781 4.828125 1.253906 C 4.867188 1.25 4.945312 1.234375 5.003906 1.289062 C 5.066406 1.339844 5.066406 1.421875 5.066406 1.453125 C 5.0625 3.027344 5.0625 4.332031 5.066406 5.558594 C 5.066406 5.585938 5.066406 5.660156 5.011719 5.714844 C 4.96875 5.753906 4.917969 5.769531 4.863281 5.765625 Z M 1.796875 5.53125 C 2.808594 5.53125 3.820312 5.53125 4.832031 5.53125 C 4.828125 4.320312 4.828125 3.035156 4.832031 1.492188 C 4.550781 1.535156 4.269531 1.574219 3.992188 1.617188 L 3.722656 1.65625 L 3.207031 1.730469 C 2.65625 1.8125 2.105469 1.890625 1.554688 1.972656 C 1.285156 2.011719 1.015625 2.050781 0.75 2.085938 L 0.492188 2.125 L 0.492188 5.53125 Z M 1.796875 5.53125 "/>
<path style=" stroke:none;fill-rule:nonzero;fill:rgb(24.705882%,27.058824%,41.960784%);fill-opacity:1;" d="M 4.898438 10.746094 C 4.863281 10.746094 4.832031 10.742188 4.800781 10.738281 L 4.796875 10.738281 L 3.625 10.566406 C 3.191406 10.503906 2.757812 10.441406 2.324219 10.378906 C 1.957031 10.324219 1.589844 10.269531 1.222656 10.214844 L 0.457031 10.101562 C 0.4375 10.097656 0.417969 10.097656 0.398438 10.097656 L 0.367188 10.09375 C 0.304688 10.089844 0.257812 10.039062 0.257812 9.976562 L 0.257812 6.351562 C 0.257812 6.285156 0.308594 6.234375 0.375 6.234375 L 1.226562 6.234375 C 2.40625 6.234375 3.625 6.234375 4.824219 6.230469 C 4.882812 6.230469 4.953125 6.238281 5.003906 6.292969 C 5.058594 6.34375 5.066406 6.414062 5.066406 6.472656 C 5.0625 7.546875 5.0625 8.636719 5.0625 9.691406 L 5.0625 10.503906 C 5.0625 10.59375 5.0625 10.660156 5.003906 10.710938 C 4.976562 10.734375 4.9375 10.75 4.898438 10.746094 Z M 0.492188 9.871094 L 1.253906 9.980469 C 1.621094 10.035156 1.988281 10.089844 2.355469 10.144531 C 2.789062 10.207031 3.222656 10.269531 3.65625 10.335938 L 4.828125 10.503906 L 4.828125 9.691406 C 4.828125 8.636719 4.828125 7.546875 4.832031 6.472656 L 4.832031 6.464844 L 4.824219 6.464844 C 3.625 6.46875 2.40625 6.46875 1.226562 6.46875 L 0.492188 6.46875 Z M 0.492188 9.871094 "/>
</g>
</svg>
